<svg width="100" height="100" viewBox="0 0 100 100" fill="none" xmlns="http://www.w3.org/2000/svg">
<circle cx="50" cy="50" r="50" fill="#E3FDE6"/>
<path d="M50.0317 24V75.4497" stroke="#0E811C" stroke-width="3" stroke-linecap="round" stroke-linejoin="round"/>
<path d="M61.7249 33.3545H44.1852C42.0143 33.3545 39.9324 34.2169 38.3974 35.7519C36.8624 37.2869 36 39.3688 36 41.5397C36 43.7105 36.8624 45.7925 38.3974 47.3275C39.9324 48.8625 42.0143 49.7249 44.1852 49.7249H55.8783C58.0491 49.7249 60.1311 50.5872 61.6661 52.1222C63.2011 53.6573 64.0635 55.7392 64.0635 57.91C64.0635 60.0809 63.2011 62.1628 61.6661 63.6978C60.1311 65.2329 58.0491 66.0952 55.8783 66.0952H36" stroke="#0E811C" stroke-width="3" stroke-linecap="round" stroke-linejoin="round"/>
</svg>
