<svg width="47" height="47" viewBox="0 0 47 47" fill="none" xmlns="http://www.w3.org/2000/svg">
<path d="M34.125 1H12.0417C5.94352 1 1 5.94352 1 12.0417V34.125C1 40.2231 5.94352 45.1667 12.0417 45.1667H34.125C40.2231 45.1667 45.1667 40.2231 45.1667 34.125V12.0417C45.1667 5.94352 40.2231 1 34.125 1Z" stroke="#0E811C" stroke-width="2" stroke-linecap="round" stroke-linejoin="round"/>
<path d="M31.9167 21.6921C32.1892 23.53 31.8753 25.407 31.0196 27.0562C30.1638 28.7053 28.8099 30.0427 27.1503 30.878C25.4907 31.7134 23.6099 32.0041 21.7755 31.7089C19.9412 31.4138 18.2466 30.5477 16.9328 29.2339C15.619 27.9201 14.7529 26.2255 14.4577 24.3911C14.1626 22.5568 14.4533 20.676 15.2887 19.0164C16.124 17.3568 17.4613 16.0028 19.1105 15.1471C20.7597 14.2914 22.6367 13.9775 24.4746 14.25C26.3493 14.528 28.0849 15.4016 29.425 16.7417C30.7651 18.0818 31.6387 19.8174 31.9167 21.6921Z" stroke="#0E811C" stroke-width="2" stroke-linecap="round" stroke-linejoin="round"/>
</svg>
