<svg width="96" height="29" viewBox="0 0 96 29" fill="none" xmlns="http://www.w3.org/2000/svg">
<path d="M7.512 23.288C6.184 23.288 4.896 23.112 3.648 22.76C2.416 22.392 1.424 21.92 0.672 21.344L1.992 18.416C2.712 18.944 3.568 19.368 4.56 19.688C5.552 20.008 6.544 20.168 7.536 20.168C8.64 20.168 9.456 20.008 9.984 19.688C10.512 19.352 10.776 18.912 10.776 18.368C10.776 17.968 10.616 17.64 10.296 17.384C9.992 17.112 9.592 16.896 9.096 16.736C8.616 16.576 7.96 16.4 7.128 16.208C5.848 15.904 4.8 15.6 3.984 15.296C3.168 14.992 2.464 14.504 1.872 13.832C1.296 13.16 1.008 12.264 1.008 11.144C1.008 10.168 1.272 9.288 1.8 8.504C2.328 7.704 3.12 7.072 4.176 6.608C5.248 6.144 6.552 5.912 8.088 5.912C9.16 5.912 10.208 6.04 11.232 6.296C12.256 6.552 13.152 6.92 13.92 7.4L12.72 10.352C11.168 9.472 9.616 9.032 8.064 9.032C6.976 9.032 6.168 9.208 5.64 9.56C5.128 9.912 4.872 10.376 4.872 10.952C4.872 11.528 5.168 11.96 5.76 12.248C6.368 12.52 7.288 12.792 8.52 13.064C9.8 13.368 10.848 13.672 11.664 13.976C12.48 14.28 13.176 14.76 13.752 15.416C14.344 16.072 14.64 16.96 14.64 18.08C14.64 19.04 14.368 19.92 13.824 20.72C13.296 21.504 12.496 22.128 11.424 22.592C10.352 23.056 9.048 23.288 7.512 23.288ZM17.2967 6.2H21.1847V23H17.2967V6.2ZM40.5797 6.2V23H37.3877L29.0117 12.8V23H25.1717V6.2H28.3877L36.7397 16.4V6.2H40.5797ZM55.6185 19.4H47.8185L46.3305 23H42.3465L49.8345 6.2H53.6745L61.1865 23H57.1065L55.6185 19.4ZM54.3945 16.448L51.7305 10.016L49.0665 16.448H54.3945ZM87.4074 6.2L81.9114 23H77.7354L74.0394 11.624L70.2234 23H66.0714L60.5514 6.2H64.5834L68.3754 18.008L72.3354 6.2H75.9354L79.7754 18.104L83.6874 6.2H87.4074Z" fill="#2E2E2E"/>
<circle cx="92.5" cy="19.5" r="3.5" fill="#0E811C"/>
</svg>
