<svg width="728" height="542" viewBox="0 0 728 542" fill="none" xmlns="http://www.w3.org/2000/svg">
<circle cx="379" cy="257" r="224" fill="#F2F2F2"/>
<path d="M21.5392 314.794L227.983 297.333L226.733 339.921L33.116 384.073L21.5392 314.794Z" fill="#E5E5E5"/>
<path d="M100.087 481.985L271.785 366.038L291.469 403.825L143.988 536.815L100.087 481.985Z" fill="#E5E5E5"/>
<path fill-rule="evenodd" clip-rule="evenodd" d="M438.647 224.086C444.735 228.492 443.765 237.163 441.933 243.463C439.234 252.738 433.859 261.325 427.728 268.727C416.85 281.858 398.384 296.602 381.362 285.074C366.203 274.808 356.641 254.092 353.341 236.643C352.321 231.25 350.962 223.215 355.755 219.161C362.841 213.169 375.34 214.259 383.893 215.03C389.527 215.538 394.962 217.262 400.529 216.453C413.463 214.571 427.858 216.276 438.647 224.086Z" fill="#0E811C"/>
<path fill-rule="evenodd" clip-rule="evenodd" d="M176.402 292.8C188.734 308.42 209.7 310.888 228.321 310.735C239.503 310.642 250.706 309.802 261.668 307.527C267.578 306.3 273.448 304.675 279.158 302.722C282.93 301.432 288.545 300.788 290.151 296.752C294.385 286.104 291.269 272.751 289.526 261.943C288.639 256.446 287.973 250.916 287.111 245.414C286.559 241.895 286.295 238 284.817 234.707C283.087 230.849 280.902 231.619 277.244 232.685C272.204 234.155 267.029 234.765 261.846 235.555C249.199 237.484 238.164 241.372 226.67 246.884C215.305 252.334 204.28 257.713 194.142 265.291C189.006 269.132 184.58 273.3 180.457 278.194C177.271 281.975 172.517 287.878 176.402 292.8ZM230.308 362.18C230.407 363.862 249.735 358.785 252.278 358.215C268.966 354.477 285.985 350.221 301.739 343.468C316.445 337.165 329.401 329.953 340.973 318.755C346.367 313.535 351.219 308.038 355.861 302.184C358.188 299.249 361.367 299.59 363.962 297.108C366.295 294.873 368.085 293.129 367.356 289.789C361.524 291.323 350.755 300.969 344.71 296.098C341.263 293.322 346.043 290.422 348.249 288.813C352.397 285.788 355.944 282.056 359.241 278.139C353.58 279.235 348.31 281.352 343.383 284.299C341.194 285.608 333.692 290.355 331.945 285.83C330.87 283.043 335.958 279.543 337.544 278.001C341.439 274.217 345.643 269.799 347.711 264.711C342.598 263.527 337.779 267.473 334.298 270.687C330.433 274.254 325.695 277.999 322.455 282.11C320.783 284.231 320.419 286.735 319.113 289.022C317.643 291.596 315.293 293.801 313.046 295.705C308.718 299.374 303.655 302.075 298.459 304.31C286.584 309.415 273.856 313.028 261.199 315.562C254.99 316.806 248.933 317.378 242.631 317.589C237.732 317.754 235.565 319.216 233.695 323.722C228.634 335.916 229.553 349.331 230.308 362.18ZM375.658 269.266C378.49 271.912 382.169 273.572 385.13 276.116C387.735 278.354 390.739 280.742 393.646 282.552C396.75 284.484 399.069 283.13 401.863 281.381C405.143 279.33 408.915 278.499 412.293 276.664C423.975 270.315 438.267 254.759 436.086 240.475C435.162 234.421 432.027 228.464 426.335 225.717C421.166 223.223 413.651 221.839 408.121 223.924C405.002 225.1 402.769 227.697 400.771 230.249C398.44 233.225 397.547 232.756 395.174 229.886C390.926 224.752 383.922 220.247 376.998 220.355C373.557 220.41 370.139 221.134 367.039 222.56C366.619 222.754 366.385 223.339 365.963 223.537C365.446 223.781 364.595 223.274 364.235 223.502C363.327 224.075 362.421 225.868 361.898 226.777C359.797 230.426 356.015 237.583 359.827 240.656C359.829 240.657 359.657 244.813 359.709 245.287C359.978 247.766 360.837 249.813 361.942 252.08C365.263 258.892 370.166 264.136 375.658 269.266ZM370.011 326.898C372.694 327.731 375.583 319.336 373.01 317.996C370.556 316.718 367.582 326.145 370.011 326.898ZM412.147 316.861C413.076 320.032 413.468 323.631 415.74 326.212C417.82 323.747 418.026 319.199 416.008 316.665C414.856 315.219 411.13 313.396 412.147 316.861ZM326.297 261.299C326.312 261.379 323.069 262.928 324.651 264.621C326.813 266.935 326.516 262.432 326.297 261.299ZM312.895 235.453C312.932 238.66 319.73 237.886 319.682 234.661C319.622 230.692 312.855 232.055 312.895 235.453ZM321.009 208.655C320.336 205.72 308.512 201.636 308.834 206.752C308.996 209.317 322.436 214.897 321.009 208.655ZM442.225 308.212C443.551 309.803 445.434 310.431 447.022 311.652C448.689 312.932 449.879 314.593 451.334 316.095C455.33 320.221 460.141 323.611 464.452 327.401C472.378 334.367 479.97 341.857 488.758 347.765C504.461 358.323 522.672 364.097 540.749 369.153C542.247 369.572 546.561 371.263 548.043 370.003C549.641 368.645 548.828 363.866 548.755 362.059C548.455 354.651 547.59 347.155 547.684 339.758C547.723 336.72 548.614 332.401 547.026 329.621C545.253 326.516 540.304 325.607 537.242 324.439C527.937 320.888 518.973 314.897 510.753 309.348C500.649 302.527 490.444 295.593 480.045 289.225C469.858 282.987 458.62 278.81 447.256 275.247C446.73 276.352 452.152 279.907 452.772 280.406C455.745 282.795 458.979 285.273 461.186 288.428C462.749 290.661 464.351 295.715 460.037 295.844C457.946 295.908 454.854 293.887 452.958 293.234C449.825 292.155 446.598 291.397 443.322 290.904C446.138 294.001 455.685 299.564 453.949 304.714C452.263 309.712 442.515 303.88 439.159 303.88C439.709 305.623 441.092 306.852 442.225 308.212ZM557.394 322.161C563.637 324.354 570.036 325.6 576.48 327.015C582.621 328.364 588.298 329.381 594.588 328.591C603.274 327.501 612.885 323.909 613.986 314.054C615.292 302.378 607.034 291.648 599.943 283.272C591.313 273.08 581.622 263.968 571.12 255.718C560.629 247.475 549.306 240.209 537.444 234.074C528.419 229.407 518.227 226.573 508.684 223.071C506.869 222.405 501.847 220.064 500.149 222.004C498.777 223.573 500.645 226.187 501.27 227.644C502.49 230.484 502.658 233.343 502.973 236.393C504.38 250.011 506.074 263.626 506.853 277.303C507.07 281.115 507.452 285.102 507.229 288.917C507.107 291.029 506.005 293.72 506.739 295.783C508.148 299.748 514.603 302.372 518.024 304.144C524.148 307.314 530.632 309.68 536.819 312.713C543.614 316.044 550.229 319.644 557.394 322.161ZM470.811 233.672C469.097 233.437 466.53 232.971 465.003 234.079C463.011 235.525 463.533 237.537 465.373 238.585C466.826 239.414 470.227 239.641 471.663 238.888C474.108 237.608 473.694 234.068 470.811 233.672ZM461.32 265.207C462.705 267.51 467.766 269.02 467.325 264.723C466.947 261.043 458.77 260.966 461.32 265.207ZM463.199 200.328C460.973 201.189 456.933 201.926 456.273 204.785C455.659 207.447 458.184 207.27 460.007 206.538C461.506 205.937 468.184 200.282 463.199 200.328ZM114.415 301.852C115.715 296.799 114.725 291.206 115.442 286.031C116.138 281.015 117.391 276.406 119.188 271.678C123.168 261.212 127.727 251.791 134.177 242.606C146.326 225.309 160.421 210.074 177.442 197.439C194.245 184.967 212.852 174.831 232.562 167.727C253.463 160.193 274.502 157.571 296.543 156.127C303.125 155.696 309.701 155.185 316.246 154.355C321.029 153.748 327.026 153.001 331.755 154.464C334.726 155.383 336.386 157.971 333.15 159.669C330.855 160.873 327.85 161.016 325.316 161.336C328.377 171.049 333.359 180.795 341.254 187.483C348.961 194.012 359.275 196.25 369.002 197.906C374.277 198.804 380.183 199.498 385.54 199.111C388.926 198.867 391.568 197.301 392.935 200.784C393.883 203.204 394.332 205.859 395.582 202.206C397.061 197.886 397.786 197.913 402.385 196.686C411.792 194.177 422.575 191.888 430.78 186.462C439.294 180.832 442.255 171.724 447.007 163.244C448.183 161.148 451.728 156.906 449.917 154.504C448.26 152.308 442.872 152.527 440.405 152.298C437.802 152.056 435.183 152.046 432.57 151.944C431.057 151.886 428.013 152.505 428.622 150.248C429.54 146.846 439.382 147.282 441.826 147.227C446.371 147.125 450.978 147.23 455.5 147.73C477.921 150.206 500.544 154.784 522.241 160.889C564.336 172.733 605.106 194.559 635.827 226.001C665.316 256.183 674.658 306.409 656.529 344.946C647.108 364.974 626.662 373.201 606.843 379.846C596.389 383.351 585.319 386.092 574.206 385.431C568.873 385.113 563.813 383.68 558.612 382.6C556.344 382.128 553.762 381.377 551.433 381.566C549.669 381.71 547.975 383.326 546.32 382.468C545.146 381.858 544.636 380.108 543.201 379.362C541.478 378.468 539.389 378.145 537.528 377.693C532.357 376.439 527.349 374.405 522.293 372.737C517.066 371.011 512.133 368.79 507.117 366.544C504.584 365.409 498.723 360.797 497.073 364.169C496.32 365.708 496.641 368.676 496.458 370.29C496.136 373.113 495.759 375.929 495.347 378.74C494.438 384.929 493.351 391.091 492.236 397.246C490.224 408.351 487.632 418.983 483.297 429.43C479.836 437.771 476.797 447.225 470.37 453.861C467.565 456.757 463.737 458.06 459.713 457.15C455.135 456.115 452.857 451.963 450.078 448.606C443.965 441.219 433.871 435.559 424.551 433.522C413.138 431.027 402.02 434.676 391.126 437.778C379.603 441.059 367.871 444.185 356.56 448.129C346.021 451.805 334.64 457.233 323.209 456.761C313.241 456.349 303.93 448.248 296.742 442.073C289.521 435.872 280.493 426.791 270.111 427.522C264.956 427.884 260.258 430.367 255.237 431.377C249.724 432.485 243.859 432.643 238.253 433.056C231.294 433.569 215.726 431.757 213.152 423.398C212.77 422.157 212.768 419.604 214.408 419.108C215.917 418.652 216.687 420.413 218.116 420.332C221.024 420.169 223.296 415.106 224.894 413.146C231.34 405.234 240.183 399.332 247.417 392.184C255.586 384.114 262.56 374.336 268.715 364.692C265.932 363.97 262.93 365.169 260.237 365.739C256.964 366.431 253.776 367.267 250.551 368.154C246.997 369.131 243.393 369.803 239.786 370.548C237.094 371.102 233.522 371.27 231.093 372.617C228.972 373.795 227.789 375.059 225.156 375.4C222.479 375.747 219.73 375.454 217.041 375.436C209.766 375.387 202.507 375.252 195.267 374.484C169.684 371.771 142.565 360.965 127.182 339.521C122.998 333.689 119.627 327.227 117.497 320.37C115.835 315.017 112.968 307.473 114.415 301.852Z" fill="#2E2E2E"/>
<path fill-rule="evenodd" clip-rule="evenodd" d="M354.364 54.779C347.641 54.874 341.339 56.8647 335.075 59.1279C329.566 61.1178 323.693 62.9588 319.238 66.9308C311.226 74.0756 309.139 85.9059 307.827 96.0273C306.192 108.657 311.635 119.254 316.215 130.68C320.499 141.367 328.363 150.024 337.709 156.621C342.606 160.077 348.018 162.163 353.68 163.992C359.432 165.85 365.002 168.338 371.155 168.328C380.501 168.315 392.464 163.883 396.445 154.689C398.257 150.504 396.493 149.752 392.866 152.027C387.605 155.327 382.533 158.889 376.385 160.353C364.462 163.194 350.181 158.793 339.726 152.988C329.275 147.183 322.258 138.464 317.569 127.607C312.838 116.654 311 105.861 312.825 94.0532C314.371 84.0466 317.446 74.9063 326.477 69.4742C345.972 57.7492 372.238 58.6939 389.575 73.9315C391.952 76.0204 394.303 78.0531 396.753 80.0478C398.31 81.3155 400.145 82.8367 399.918 85.0293C399.725 86.9068 395.715 94.1459 400.543 91.9224C404.457 90.1193 406.583 86.5948 411.324 86.1585C416.37 85.6937 422.388 89.5642 423.898 94.4357C425.338 99.0839 422.77 105.443 418.749 108.109C416.259 109.76 413.519 109.505 410.691 109.439C409.288 109.406 405.38 108.95 404.452 110.432C402.808 113.052 408.606 115.806 410.477 116.386C415.03 117.796 420.411 116.136 423.028 112.078C425.689 107.953 427.509 103.178 427.876 98.2627C428.226 93.5536 427.156 88.7858 424.374 84.9192C421.415 80.8072 415.382 76.197 409.975 77.6255C407.628 78.2455 405.742 80.667 403.438 81.1271C401.984 81.4169 402.596 81.6243 401.392 80.5482C400.627 79.8656 399.904 78.6058 399.199 77.7965C395.14 73.1436 391.127 68.1779 386.16 64.4538C377.253 57.7762 365.414 54.6222 354.364 54.779ZM378.994 147.028C377.941 144.562 376.006 148.961 375.434 149.697C374.301 151.152 371.637 152.284 371.753 154.43C371.942 157.973 376.778 157.315 378.391 155.467C380.226 153.363 380.034 149.463 378.994 147.028ZM344.637 130.254C342.028 134.314 345.207 138.696 347.27 142.289C349.242 145.725 351.074 149.609 353.37 152.838C357.181 158.201 365.474 152.4 365.72 146.888C365.908 142.669 362.915 144.506 360.994 146.082C359.017 147.705 358.08 148.109 356.007 146.336C351.838 142.769 349.964 136.803 347.082 132.287C346.51 131.391 345.474 130.853 344.637 130.254ZM337.199 131.559C336.526 133.523 337.938 138.725 334.015 138.205C331.846 137.918 331.384 134.811 330.244 133.455C326.411 128.898 327.586 137.518 328.588 139.675C330.796 144.43 336.974 147.707 340.038 141.674C341.178 139.43 341.173 136.598 340.594 134.186C340.279 132.872 338.441 127.934 337.199 131.559ZM372.186 122.261C372.533 124.552 374.69 129.116 372.057 130.754C369.74 132.197 365.706 129.064 363.922 127.756C362.069 126.397 357.868 122.498 357.703 127.35C357.619 129.824 360.099 132.791 361.868 134.216C365.643 137.255 373.486 139.981 376.268 134.261C377.784 131.145 376.955 126.709 375.953 123.57C375.141 121.025 371.347 116.728 372.186 122.261ZM322.675 109.719C321.139 111.5 317.498 115.491 319.478 118.028C321.792 120.993 325.553 115.553 327.036 114.039C328.372 112.675 331.182 108.791 329.984 106.73C328 103.321 324.024 108.155 322.675 109.719ZM346.821 102.049C341.799 105.315 348.401 107.667 351.261 107.96C354.723 108.312 359.149 108.546 362.328 106.85C366.835 104.446 365.333 100.814 360.965 99.945C356.485 99.0543 350.718 99.5135 346.821 102.049ZM412.1 91.6503C408.407 92.3678 404.19 93.3015 402.932 97.3214C401.633 101.476 403.499 102.855 407.271 101.919C410.76 101.054 415.973 100.183 417.946 96.7789C420.303 92.7123 415.524 90.9859 412.1 91.6503Z" fill="#2E2E2E"/>
<path fill-rule="evenodd" clip-rule="evenodd" d="M615.281 180.92C616.52 184.916 622.792 187.566 625.92 189.995C636.86 198.494 647.551 207.342 657.441 217.041C662.575 222.076 666.46 228.165 670.912 233.764C671.998 235.131 673.922 238.191 676.053 237.904C678.39 237.59 678.862 233.57 678.788 231.815C678.533 225.828 673.057 220.047 669.153 215.925C664.76 211.29 660.064 206.773 655.269 202.553C649.988 197.907 644.259 193.913 638.42 190.003C632.686 186.164 627.188 181.728 621.226 178.25C618.417 176.612 613.752 175.989 615.281 180.92ZM232.861 142.969C228.295 143.113 223.839 144.609 219.532 145.997C210.059 149.052 201.036 153.29 192.139 157.718C176.541 165.482 161.53 174.875 147.771 185.555C144.895 187.787 141.946 189.595 138.818 191.421C136.817 192.59 133.963 194.016 133.191 196.399C131.233 202.456 141.12 196.377 142.523 195.507L144.497 194.285C173.772 176.168 203.014 158.564 236.129 148.174C237.893 147.621 238.441 146.05 237.516 144.492C236.513 142.804 234.558 142.916 232.861 142.969ZM616.613 155.647C616.825 157.491 618.917 157.91 620.328 158.502C625.593 160.711 630.989 162.594 636.239 164.838C645.984 169.005 654.933 175.051 665.104 178.212C667.429 178.936 667.772 176.594 667.149 175C666.456 173.221 664.375 171.972 662.869 170.943C658.526 167.972 653.6 165.836 648.777 163.772C643.995 161.724 639.072 160.176 634.169 158.459C629.613 156.864 624.324 153.894 619.431 153.675L619.217 153.665C617.66 153.586 616.367 153.481 616.613 155.647ZM224.549 127.629C229.205 126.321 224.807 123.378 222.04 123.585C218.953 123.816 215.97 125.271 213.043 126.148C204.093 128.832 195.798 131.766 187.437 135.931C186.19 136.553 180.697 139.5 184.33 140.806C186.849 141.71 192.73 137.83 194.892 136.899C204.393 132.808 214.602 130.422 224.549 127.629Z" fill="#2E2E2E"/>
<path fill-rule="evenodd" clip-rule="evenodd" d="M410.141 137.155C409.559 135.45 402.361 116.812 405.179 116.25C408.163 115.654 412.152 126.468 413.017 128.421C416.214 135.637 418.108 143.379 419.591 151.119C420.624 156.508 421.532 162.028 421.17 167.538C420.892 171.772 419.141 172.413 416.254 175.008C416.254 162.147 414.297 149.328 410.141 137.155Z" fill="#2E2E2E"/>
</svg>
