<svg width="100" height="100" viewBox="0 0 100 100" fill="none" xmlns="http://www.w3.org/2000/svg">
<circle cx="50" cy="50" r="50" fill="#E3FDE6"/>
<path d="M71.0952 46.0476C71.0952 62.418 50.0476 76.4497 50.0476 76.4497C50.0476 76.4497 29 62.418 29 46.0476C29 40.4654 31.2175 35.1119 35.1647 31.1647C39.1119 27.2175 44.4654 25 50.0476 25C55.6298 25 60.9833 27.2175 64.9305 31.1647C68.8777 35.1119 71.0952 40.4654 71.0952 46.0476Z" stroke="#0E811C" stroke-width="3" stroke-linecap="round" stroke-linejoin="round"/>
<path d="M50.0476 53.0635C53.9224 53.0635 57.0635 49.9224 57.0635 46.0476C57.0635 42.1729 53.9224 39.0317 50.0476 39.0317C46.1729 39.0317 43.0317 42.1729 43.0317 46.0476C43.0317 49.9224 46.1729 53.0635 50.0476 53.0635Z" stroke="#0E811C" stroke-width="3" stroke-linecap="round" stroke-linejoin="round"/>
</svg>
