<svg width="514" height="424" viewBox="0 0 514 424" fill="none" xmlns="http://www.w3.org/2000/svg">
<path d="M420.5 179.5C517 351 357.323 375.5 243 375.5C128.677 375.5 36 282.823 36 168.5C36 54.1771 115.677 0 230 0C344.323 0 420.5 65.1771 420.5 179.5Z" fill="#F9F9F9"/>
<path fill-rule="evenodd" clip-rule="evenodd" d="M152.219 249.633C154.601 267.522 156.983 285.411 159.365 303.299L161.288 317.745C161.531 319.568 161.302 323.164 162.227 324.796C162.554 325.371 163.413 325.645 164.044 325.984C166.218 327.153 168.392 328.321 170.565 329.49C188.952 339.374 207.338 349.258 225.724 359.142C243.369 368.628 261.015 378.114 278.66 387.6C280.486 388.582 283.44 391.143 285.411 390.468C287.285 389.827 289.2 388.245 290.901 387.247C294.166 385.331 297.432 383.415 300.697 381.498C320.457 369.903 340.217 358.308 359.977 346.712C368.129 341.929 376.281 337.145 384.434 332.361C386.664 331.052 388.896 329.743 391.126 328.434C392.293 327.749 392.444 327.773 392.904 326.611C394.62 322.267 395.415 317.291 396.63 312.784C397.969 307.816 399.308 302.849 400.646 297.882C401.243 295.665 400.963 295.379 399.989 293.24C398.063 289.005 396.136 284.771 394.21 280.536C389.934 271.137 385.658 261.739 381.381 252.34C379.652 248.539 375.487 245.865 372.488 243.069L325.929 199.665C324.746 198.562 323.563 197.46 322.381 196.357C322.186 202.984 320.878 210.107 322.796 216.508C325.944 227.013 329.091 237.518 332.239 248.023C333.76 253.101 335.281 258.178 336.802 263.256C337.085 264.199 338.806 267.94 338.346 268.77C338.091 269.229 335.917 269.695 335.447 269.874C333.424 270.644 331.402 271.415 329.379 272.185C323.744 274.332 318.109 276.479 312.474 278.625C307.406 280.556 302.338 282.486 297.27 284.417C295.551 285.072 293.532 286.284 291.717 286.183C290.094 286.092 288.247 285.288 286.676 284.883C283.914 284.17 281.151 283.458 278.389 282.745C272.963 281.346 267.536 279.947 262.11 278.547C256.005 276.972 250.85 272.348 245.629 268.925C236.655 263.041 227.681 257.158 218.708 251.275C216.653 249.928 216.646 249.16 215.827 246.7C213.987 241.174 212.147 235.647 210.308 230.12C209.325 227.17 208.117 224.206 207.375 221.185C206.151 216.199 205.426 211.038 204.456 205.997C204.164 204.476 203.872 202.955 203.579 201.434C199.821 202.961 196.063 204.488 192.305 206.015C191.76 206.237 189.106 206.897 188.87 207.439C188.72 207.782 189.51 209.337 189.623 209.671C192.739 218.913 195.855 228.154 198.972 237.395C199.952 240.302 200.932 243.208 201.912 246.115C199.57 242.43 197.227 238.744 194.885 235.058C193.044 241.257 191.204 247.456 189.363 253.654C185.013 248.628 180.663 243.602 176.312 238.576C174.807 243.602 173.301 248.628 171.795 253.654C167.11 247.456 162.425 241.257 157.74 235.058C157.183 238.293 156.626 241.527 156.069 244.762C155.901 245.739 155.935 248.54 155.286 249.313C154.751 249.949 153.212 249.633 152.219 249.633Z" fill="#0E811C"/>
<path fill-rule="evenodd" clip-rule="evenodd" d="M448.84 288.302C448.577 296.722 448.759 307.653 444.157 315.057C443.414 316.252 440.898 319.974 440.617 316.7C440.341 313.485 441.131 310.302 440.349 307.05C439.93 305.31 438.522 301.509 436.115 303.081C434.889 303.882 434.566 305.86 434.086 307.108C433.376 308.955 432.581 310.773 431.833 312.606C429.223 319.005 426.519 326.641 420.717 330.875C421.476 325.358 423.546 319.466 422.154 313.889C421.68 311.988 420.244 308.517 417.771 309.631C415.36 310.716 413.798 315.558 412.661 317.714C409.212 324.251 405.685 330.666 401.802 336.959C399.849 340.124 397.74 343.017 395.184 345.725C393.587 347.418 391.594 350.281 389.076 350.533C389.076 345.706 390.662 341.043 392.11 336.498C393.668 331.611 395.088 326.682 396.617 321.786C397.943 317.538 399.032 313.323 399.915 308.968C400.281 307.166 400.57 305.301 402.103 304.138C403.482 303.092 405.659 302.595 407.196 301.826C411.232 299.807 415.382 297.629 419.132 295.119C420.671 294.089 421.996 292.758 423.608 291.834C425.445 290.781 427.159 289.895 428.858 288.612C436.19 283.074 442.799 276.263 447.252 268.155C447.975 271.413 448.933 274.596 449.039 277.953C449.147 281.396 448.948 284.861 448.84 288.302ZM388.501 327.007C387.328 325.024 385.542 325.836 383.968 326.792C381.525 328.275 379.076 329.748 376.621 331.212C371.625 334.193 366.722 337.329 361.841 340.493C351.904 346.933 341.622 352.204 331.147 357.655C321.022 362.923 311.298 369.192 301.812 375.529C299.532 377.052 297.268 378.61 295.079 380.262C293.136 381.728 291.582 383.787 289.537 385.092C287.406 386.451 285.942 385.348 283.905 384.346C281.357 383.093 278.702 382.042 276.097 380.912C265.587 376.349 255.046 371.613 244.822 366.434C234.659 361.288 225.03 355.357 215.293 349.467C210.655 346.662 206.097 343.679 201.523 340.771C196.655 337.676 191.615 335.358 186.508 332.727C184.249 331.563 182.248 329.982 179.927 328.924C177.488 327.811 174.911 327.013 172.726 325.408C171.747 324.689 170.921 323.829 169.801 323.319C168.882 322.902 167.839 322.831 166.932 322.388C165.086 321.485 164.557 319.653 164.2 317.748C161.9 305.516 160.678 292.945 159.345 280.577C158.596 273.622 157.76 266.694 156.725 259.776C156.259 256.657 157.197 254.24 157.69 251.206C158.265 247.662 158.493 244.044 158.878 240.476C160.697 243.85 162.271 247.392 164.585 250.471C166.291 252.74 169.206 255.958 172.347 255.883C177.23 255.764 177.007 247.379 177.204 244.05C179.428 246.038 180.102 249.276 181.949 251.585C183.634 253.693 185.928 256.308 188.517 257.252C193.967 259.24 193.442 249.11 193.143 246.237C192.992 244.796 192.179 242.516 194.107 243.173C195.883 243.778 197.611 246.287 199.103 247.437C201.682 249.427 204.512 251.08 207.158 252.979C210.441 255.335 213.984 257.038 217.332 259.232C219.425 260.605 221.709 260.913 223.992 261.922C227.336 263.401 230.29 265.605 233.473 267.379C239.776 270.888 246.768 274.036 253.662 276.152C255.893 276.836 258.865 278.766 260.557 276.783C261.6 275.563 262.284 273.698 263.169 272.33C264.288 270.598 265.476 268.912 266.709 267.26C271.095 261.389 275.963 255.845 281.368 250.894C287.657 245.133 294.534 239.95 301.89 235.632C305.05 233.777 318.246 225.462 321.147 231.314C318.763 231.166 316.697 232.039 314.659 233.132C314.162 233.399 311.596 235.233 312.196 233.616C311.451 233.756 310.797 234.729 310.233 235.162C309.258 235.91 307.779 236.773 306.649 237.392C305.533 238.004 304.154 238.154 303.136 238.896C302.765 239.166 302.539 239.606 302.185 239.899L301.169 239.907C301.017 240.47 300.865 241.033 300.713 241.597C300.139 239.753 299.319 242.15 298.36 242.929C297.783 243.397 296.87 243.879 296.191 244.181C295.684 244.407 295.605 243.882 295.112 244.281C294.675 244.635 294.396 245.416 293.925 245.86C293.347 246.404 292.608 246.827 291.964 247.291C290.73 248.181 289.425 248.879 288.175 249.723C286.493 250.858 285.611 252.809 283.979 253.996C283.206 254.558 282.004 254.624 281.586 254.983C280.536 255.887 280.882 257.256 278.924 257.316C279.103 257.602 279.21 257.912 279.246 258.246C278.78 258.165 278.365 257.972 278.002 257.665C278.084 259.62 276.164 260.318 275.013 261.522C274.349 262.215 273.522 263.191 273.055 264.026C272.977 264.165 272.828 265.28 272.796 265.295C272.618 265.38 271.537 264.429 271.639 264.508C271.337 266.315 269.592 268.022 268.827 269.695C268.425 270.576 268.016 271.992 267.222 272.612C267.006 272.78 266.342 272.604 265.793 273.19C265.391 273.619 264.926 274.413 264.763 274.982C264.654 275.363 264.785 276.347 264.628 276.575C264.341 276.992 263.894 276.573 263.445 276.881C262.613 277.451 262.592 278.342 261.376 278.459C262.214 280.499 267.276 281.127 269.116 281.707C274.319 283.347 279.777 284.984 284.64 287.495C285.898 288.145 287.088 288.68 287.311 290.176C287.622 292.258 286.562 295.026 286.36 297.129C285.812 302.808 285.7 308.654 285.815 314.358C285.923 319.76 286.098 325.212 286.349 330.608C286.582 335.61 287.59 340.514 288.133 345.481C288.282 346.844 288.183 352.992 290.524 352.683C292.479 352.424 291.244 348.225 291.208 347.021C291.126 344.357 291.686 341.637 291.663 338.949C291.651 337.657 292.216 336.543 292.27 335.307C292.324 334.085 291.717 333.12 291.899 331.853C292.074 330.638 295.662 323.648 292.216 324.466C292.417 323.467 292.594 322.46 292.861 321.475C293.229 321.807 293.526 322.194 293.75 322.636C294.057 320.489 293.954 318.346 294.145 316.198C294.23 315.225 294.624 314.159 294.49 313.177C294.515 312.771 294.463 312.372 294.335 311.981C294.123 311.756 293.861 311.638 293.549 311.626C293.385 311.089 293.343 310.941 293.634 310.414C293.759 310.057 294.007 309.834 294.378 309.745C295.084 309.661 295.165 309.255 294.62 308.525C294.904 307.086 294.941 306.177 294.735 304.741C294.563 303.534 295.198 301.197 294.551 300.123C293.795 298.867 293.42 300.085 293.279 298.344C293.249 297.976 293.225 297.208 293.373 296.84C293.535 296.44 294.023 296.604 294.085 296.462C294.508 295.494 294.536 293.589 293.039 293.755C293.098 293.064 293.156 292.373 293.215 291.682C294.296 292.929 293.918 291.873 294.532 291.18C295.358 290.246 296.166 290.085 297.347 289.716C300.495 288.733 303.528 287.254 306.604 286.053C313.117 283.512 319.751 281.242 326.074 278.239C339.372 271.921 352.406 265.064 365.786 258.912C364.83 257.136 365.425 257.05 366.123 255.382C367.056 256.03 366.86 255.578 367.523 255.538C367.463 254.982 367.636 254.814 368.041 255.035C368.364 255.134 368.695 255.169 369.034 255.14C369.862 255.282 370.539 255.738 371.292 255.912C371.539 256.094 371.81 256.231 372.107 256.323C372.373 256.262 372.599 256.13 372.787 255.927C374.006 256.153 374.417 257.073 374.47 258.404C374.479 258.635 373.771 258.873 373.974 259.184C374.328 259.727 375.281 259.598 375.826 259.667C375.707 260.232 375.587 260.797 375.468 261.361C377.86 260.256 377.236 263.715 377.961 264.852C378.164 265.169 378.614 264.915 378.848 265.283C379.153 265.762 379.062 266.441 379.322 266.919C379.911 267.999 380.5 267.868 381.087 269.105C384.153 275.563 388.233 281.579 391.176 288.176C392.578 291.316 393.842 294.509 395.305 297.621C396.651 300.486 397.421 302.921 396.461 306.049C394.235 313.305 391.855 320.693 388.938 327.702C388.792 327.47 388.647 327.238 388.501 327.007ZM233.25 381.168C233.041 381.524 232.833 381.88 232.624 382.236C232.16 379.565 233.396 380.804 233.25 381.168ZM223.433 376.166C222.764 375.966 223.053 374.872 223.075 374.404C223.498 374.932 223.913 375.47 224.265 376.05C223.988 376.089 223.71 376.128 223.433 376.166ZM196.527 365.897C197.23 365.503 197.735 365.219 198.532 364.772C197.722 366.352 197.722 366.352 196.527 365.897ZM154.198 226.707C153.124 229.346 156.398 245.638 153.35 246.17C152.913 244.74 152.858 240.803 151.048 240.333C148.803 239.749 149.025 243.803 148.718 245.056C144.108 241.845 142.061 235.644 139.859 230.73C137.052 224.466 134.843 217.951 132.734 211.424C130.931 205.843 129.439 200.164 127.617 194.593C126.472 191.094 125.237 187.586 124.467 183.98C124.3 183.196 123.642 181.209 124.201 180.464C125.014 179.381 127.939 180.622 128.882 180.906C134.997 182.749 141.341 183.542 147.624 184.612C154.605 185.801 161.57 187.03 168.593 187.952C170.347 188.182 172.103 188.4 173.86 188.612C175 188.75 176.724 188.612 177.807 189.124C179.997 190.159 180.463 194.119 181.277 196.174C184.312 203.839 187.885 211.263 191.081 218.859C193.96 225.702 196.142 232.982 200.281 239.213C197.194 237.843 193.283 230.6 189.834 234.775C188.351 236.57 188.725 238.935 188.843 241.084C189.015 244.19 189.069 247.319 189.069 250.43C185.694 249.552 183.426 245.716 181.654 242.998C179.234 239.287 177.709 235.789 176.637 231.534C176.173 229.691 174.942 229.646 173.849 228.543C173.146 227.834 172.792 226.879 171.785 227.91C170.518 229.206 171.36 232.794 171.579 234.324C172.099 237.964 173.803 243.567 172.146 246.987C169.911 251.604 163.92 239.988 163.218 238.311C162.861 237.457 156.488 221.079 154.198 226.707ZM150.012 147.592C150.39 147.65 150.767 147.708 151.144 147.766C150.84 148.035 150.207 148.978 149.69 148.728C149.798 148.35 149.905 147.971 150.012 147.592ZM170.005 143.297C169.887 143.427 169.768 143.557 169.65 143.687C169.109 143.009 169.3 142.022 169.3 141.238C170.016 141.671 170.19 142.536 170.005 143.297ZM171.621 150.814V153.028C170.122 152.378 170.092 152.042 171.621 150.814ZM173.441 153.629C172.391 153.341 172.265 153.108 172.413 151.492C172.848 152.397 173.135 152.994 173.441 153.629ZM179.486 170.029C179.045 171.163 176.473 168.461 176.567 167.652C176.657 166.881 177.052 166.651 177.597 167.147C177.777 167.311 177.51 167.905 177.625 168.111C178.04 168.857 178.877 169.467 179.486 170.029ZM179.514 176.861C178.87 178.472 177.721 175.934 179.405 175.865C179.515 176.189 179.552 176.521 179.514 176.861ZM178.264 174.32C178.014 173.987 177.772 173.649 177.536 173.305C178.404 173.481 179.092 174.746 180.008 173.902C179.899 175.189 178.986 175.225 178.264 174.32ZM122.173 153.39C120.778 151.865 129.874 150.795 130.971 150.533C138.934 148.632 146.452 145.881 153.898 142.505C157.45 140.894 160.984 139.264 164.452 137.479C165.95 136.709 168.003 136.055 169.254 134.898C170.147 134.072 170.111 133.448 171.272 132.956C172.257 132.539 172.306 132.933 172.757 132.179C173.028 131.726 173.335 130.069 173.176 129.578C172.744 128.24 172.105 129.325 171.208 128.403C170.562 127.738 170.719 125.847 170.895 125.064C171.124 125.437 171.256 125.842 171.291 126.278C172.264 125.798 171.871 124.148 172.936 123.877C174.058 123.593 173.942 124.468 174.235 125.362C175.082 124.116 174.403 123.053 173.944 121.836C176.277 121.398 178.783 120.975 181.095 121.752C182.767 122.313 184.198 123.694 185.963 123.961C187.692 124.221 188.024 123.401 189.299 122.568C190.333 121.892 191.222 122.688 191.754 122.177C191.426 123.901 188.604 123.666 188.951 125.82C189.107 126.789 190.294 127.66 190.834 128.415C191.512 129.362 192.053 130.408 192.515 131.475C194.311 135.626 195.079 140.442 195.833 144.881C197.693 155.837 197.929 167.009 199.679 178C200.512 183.235 201.348 188.473 201.781 193.759C201.89 195.081 202.696 198.079 202.036 199.351C201.479 200.424 200.238 200.427 199.149 200.687C197.017 201.194 195.016 201.883 192.971 202.647C191.139 203.331 190.606 203.75 189.43 202.024C188.292 200.353 187.729 198.362 186.915 196.531C185.878 194.197 184.625 191.945 183.422 189.694C185.785 189.694 187.145 188.417 187.082 186.013C187.014 183.35 184.827 182.718 183.925 180.53C183.048 181.671 182.975 181.703 182.35 180.62C181.635 179.382 181.153 177.117 180.715 175.713C181.028 176.047 181.341 176.381 181.653 176.715C182.442 175.628 181.207 173.915 180.794 172.892C180.156 171.312 180.044 169.604 179.439 168.028C179.109 167.168 178.345 166.491 178.158 165.594C178.033 164.993 178.534 164.422 178.415 163.812C178.208 162.751 177.009 161.612 176.636 160.532C176.062 158.871 175.439 157.409 174.728 155.791C173.764 153.602 173.988 151.304 173.812 148.973C173.629 146.557 172.856 144.245 172.583 141.839C172.394 140.177 172.985 138.084 171.729 136.752C171.582 138.965 172.216 138.931 170.139 139.329C167.775 139.782 166.06 141.546 163.825 142.072C163.364 142.18 163.029 140.165 163.208 142.914C162.136 142.122 159.848 143.106 160.701 143.576C160.054 144.269 158.78 143.79 158.567 144.828C156.368 142.688 152.842 149.974 150.223 146.173C149.791 148.749 147.928 150.272 145.428 150.613C144.17 150.784 143.395 151.203 142.279 151.581C142.053 151.657 141.97 151.983 141.702 152.071C141.292 152.204 140.691 151.801 140.395 151.879C139.795 152.039 139.126 152.831 138.288 152.988C137.326 153.168 136.277 153.085 135.314 152.974C134.11 152.834 133.581 152.691 132.402 153.088C131.342 153.446 130.207 154.446 129.223 153.357C127.677 156.034 123.993 155.38 122.173 153.39ZM193.623 121.081C192.453 120.94 193.266 119.933 193.807 119.631C195.279 118.809 194.886 121.232 193.623 121.081ZM128.861 130.688C135.726 120.772 147.467 113.959 157.799 108.226C163.442 105.095 169.202 102.06 175.127 99.4968C178.073 98.2232 181.053 96.9988 184.061 95.88C185.667 95.2824 187.293 94.7391 188.92 94.1983C189.369 94.0491 190.188 93.5907 190.659 93.6354C190.577 93.6274 191.829 93.9681 191.583 94.0752C192.389 93.7239 192.772 92.8076 193.72 92.4412C194.785 92.0291 196.142 91.8587 197.283 91.8215C198.292 91.7883 199.166 92.206 200.128 92.2387C200.76 92.2598 201.297 91.9592 201.916 91.915C202.233 91.8929 202.204 92.3673 202.395 92.395C202.478 92.407 203.321 92.0899 203.329 92.0954C203.637 92.293 203.909 93.0639 204.186 93.365C204.982 94.2285 206.151 94.8301 207.212 95.2845C208.504 95.8373 211.656 96.3932 210.196 98.4388C211.233 98.2895 211.716 99.2284 210.417 99.4661C209.713 99.5953 209.412 98.9499 208.89 98.5097C207.683 97.4944 204.752 96.0489 203.014 96.1143C202.035 96.1509 201.279 96.8943 200.377 97.1642C199.489 97.4296 199.05 97.0179 198.271 97.0833C197.36 97.1592 196.774 97.9307 195.906 98.0679C195.093 98.1965 194.641 97.6417 193.914 97.6804C193.051 97.7261 192.215 98.477 191.39 98.7293C190.079 99.1304 189.117 99.4038 187.837 100.069C185.356 101.358 182.586 101.847 180.029 102.957C177.985 103.844 175.668 104.311 173.776 105.292C171.673 106.382 169.56 107.469 167.501 108.653C166.013 109.509 162.988 109.804 161.348 109.586C161.324 112.611 159.838 110.49 158.339 111.815C158.694 112.128 159.096 112.358 159.545 112.506C157.922 113.155 156.421 113.963 154.848 114.71C153.222 115.482 151.487 115.651 150.419 117.112C149.435 118.457 149.768 117.763 148.3 118.293C147.627 118.536 147.041 119.278 146.555 119.776C145.721 120.632 145.536 121.929 145.06 120.169C144.921 120.384 144.374 121.75 144.268 121.785C143.671 121.15 143.585 121.902 143.251 122.171C143.427 122.756 143.176 123.139 142.498 123.32C142.155 123.576 141.808 123.826 141.457 124.071C140.184 124.955 138.564 125.713 137.667 127.03C137.006 126.64 136.761 125.966 137.164 125.278C135.9 126.444 134.393 127.642 134.051 129.436C133.894 129.285 133.711 129.175 133.503 129.108C132.99 129.455 133.658 130.488 133.983 130.721C135.402 130.169 133.629 130.369 134.582 130.458C134.854 130.483 135.133 130.686 135.433 130.69C136.312 130.701 137.137 130.659 138.009 130.525C139.93 130.229 141.818 129.676 143.679 129.122C145.705 128.519 147.731 127.917 149.712 127.177C151.344 126.568 152.948 125.889 154.552 125.213C155.192 124.942 155.832 124.668 156.473 124.4C157.692 123.89 158.334 123.053 158.164 124.487C159.134 124.326 159.975 122.953 160.72 122.392C161.768 121.605 162.947 121.017 164.189 120.615C164.691 120.452 165.061 120.245 165.581 120.244C165.836 120.243 165.989 120.963 166.149 120.924C167.263 120.653 166.756 120.035 167.256 119.145C168.352 117.198 171.304 116.121 173.116 115.016C174.267 114.314 175.083 113.369 176.146 112.592C176.642 112.228 177.003 112.067 177.524 111.914C177.922 111.796 178.411 112.712 178.67 111.791C177.743 111.412 176.978 110.944 176.086 110.667C175.455 110.47 176.212 109.798 175.212 110.198C174.811 110.359 174.673 111.137 174.525 111.463C173.408 110.464 170.268 111.499 168.943 111.917C168.852 111.946 168.443 111.73 168.25 111.743C167.485 111.794 166.952 112.825 166.449 113.269C165.11 114.45 163.658 114.943 162.01 115.617C162.448 113.217 165.672 112.234 167.554 111.315C170.305 109.971 172.866 108.256 175.877 107.533C177.883 107.051 180.541 106.663 181.408 108.999C181.926 110.398 181.991 113.876 180.237 114.522C180.052 113.868 180.645 113.31 180.824 112.743C179.077 113.41 178.79 115.511 177.464 116.607C176.718 117.223 176.452 117.42 176.091 118.015C175.733 118.606 175.562 119.158 174.723 119.786C173.352 116.871 173.584 120.864 172.889 121.366C173.168 121.164 171.756 121.753 171.925 121.69C171.859 121.714 171.244 120.716 170.845 120.737C170.119 120.776 170.258 121.576 169.908 121.979C168.722 123.343 167.19 124.238 165.281 124.023C165.236 124.994 165.535 126.153 164.212 126.242L164.038 124.09C163.318 124.82 162.369 125.513 161.783 126.358C161.116 127.319 161.187 127.912 160.081 128.552C158.924 129.222 156.463 130.542 155.087 130.656C155.427 130.173 155.367 129.736 154.907 129.347C154.215 130.062 153.193 130.132 152.456 130.777C155.014 131.847 150.491 131.792 149.917 131.913C149.533 131.995 149.198 132.345 148.809 132.424C148.293 132.529 148.226 131.985 147.781 132.158C147.131 132.41 147.395 133.122 146.714 133.48C146.225 133.737 145.396 133.734 144.844 133.978C143.53 134.561 140.729 135.852 139.841 134.286C139.391 136.973 134.792 135.337 133.09 135.157C130.759 134.909 126.699 133.813 128.861 130.688ZM138.652 103.197C138.982 102.915 139.312 102.936 139.643 103.259C139.183 100.828 142.739 99.6471 144.291 98.6132C146.349 97.2421 148.771 94.5818 151.464 94.7924C151.005 95.1332 150.546 95.4739 150.088 95.8147C150.743 95.8996 151.397 95.9846 152.051 96.0695C151.682 96.6123 151.313 97.1546 150.943 97.697C150.339 94.3617 147.185 98.5725 146.273 99.1862C145.354 99.8039 144.437 100.264 143.62 101.018C142.811 101.764 142.081 103.108 140.743 102.437C140.621 104.341 139.092 103.825 138.034 104.88C137.99 104.218 138.369 103.75 138.652 103.197ZM152.624 93.6882C155.879 92.4674 158.713 90.2102 161.78 88.5978C164.71 87.0573 167.699 85.6742 170.678 84.2372C172.189 83.5079 174.956 81.6222 176.684 82.5831C179.014 83.8809 175.806 84.2995 174.972 84.7489C174.664 82.7505 173.585 84.5609 174.23 85.6727C172.451 84.9037 168.573 87.9123 166.876 88.7421C166.492 88.93 166.664 89.0386 166.227 89.2597C166.12 89.314 165.007 89.5678 164.688 89.6749C163.091 90.2102 162.038 89.785 161.35 91.7155C161.206 91.2611 161.062 90.8063 160.918 90.3514C159.918 92.5995 156.879 93.5836 154.935 94.913C154.434 95.2558 153.003 96.5852 152.368 96.3103C151.484 95.9273 151.838 93.9822 152.624 93.6882ZM211.346 100.466C212.72 100.557 211.395 101.199 211.772 101.623C211.73 101.576 212.6 102.319 212.486 102.115C212.64 102.389 213.008 102.379 213.197 102.937C213.847 104.856 211.009 106.838 210.051 107.926C208.19 110.044 207.115 112.725 205.175 114.775C204.299 115.701 203.428 116.34 202.213 116.685C201.364 116.927 200.465 116.668 199.684 117.486C199.055 118.145 199.197 118.52 198.502 118.87C197.277 119.488 196.738 118.946 195.546 120.281C194.521 117.49 197.467 117.494 199.004 115.934C201.127 113.78 203.452 111.608 205.443 109.304C207.21 107.256 207.919 105.462 208.758 102.975C209.022 102.191 209.311 100.51 210.04 100.017C211.176 99.2515 210.494 100.41 211.346 100.466ZM218.104 172.982C221.708 168.945 226.18 165.32 231.027 162.889C232.759 162.019 235.225 160.878 237.02 162.217C238.781 163.529 238.402 166.146 237.693 167.926C237.012 167.658 237.654 165.156 237.301 164.538C236.531 163.189 234.87 163.906 233.74 164.358C232.415 164.888 231.234 165.473 230.185 166.434C229.76 166.824 228.945 167.173 228.672 167.441C228.263 167.27 228.021 167.395 227.949 167.813C228.033 168.069 228.023 168.321 227.918 168.57C227.859 168.649 227.326 168.325 227.25 168.39C226.905 168.686 226.582 169.034 226.242 169.309C225.56 169.861 224.98 170.123 224.352 170.893C223.139 172.381 221.535 173.253 220.316 174.671C220.041 174.991 219.712 175.813 219.65 175.885C219.034 176.605 218.121 177.174 217.426 177.936C216.225 179.253 214.943 180.136 213.557 181.265C212.96 181.75 212.264 182.274 211.867 182.949C211.686 183.257 211.584 184.946 211.577 184.953C210.218 186.445 210.483 183.446 210.585 183.07C211.689 179.025 215.421 175.988 218.104 172.982ZM210.684 200.337C210.854 200.973 210.993 201.498 211.164 202.143C210.087 201.258 210.087 201.258 210.684 200.337ZM209.52 202.418C209.124 202.818 208.726 203.215 208.325 203.609C207.443 202.676 209.682 202.258 209.52 202.418ZM208.961 186.354C208.539 188.062 206.996 190.132 205.934 191.48C206.051 191.331 205.029 191.63 204.912 191.698C204.535 191.917 205.44 193.338 204.13 192.703C203.665 192.966 204.58 194.039 203.949 194.519C202.124 190.355 207.107 186.747 209.037 183.656C209.98 184.523 209.198 185.396 208.961 186.354ZM197.106 208.867C198.437 209.21 199.129 208.995 200.027 207.686C200.568 206.9 200.765 205.508 202 206.684L202.218 205.171C203.981 205.896 203.833 208.513 204.604 209.964C204.979 208.323 205.867 203.738 208.586 204.474C211.638 205.299 206.558 210.556 206.086 211.843C205.049 210.231 205.457 211.731 204.665 211.958C203.986 212.153 202.925 211.653 202.1 211.698C199.589 211.835 197.383 212.966 195.09 213.923C194.509 212.356 193.929 210.788 193.348 209.22C194.698 209.324 197.49 205.726 197.887 208.341C196.885 208.167 196.603 208.211 196.115 209.124C196.427 208.965 196.757 208.88 197.106 208.867ZM202.742 229.329C202.738 229.316 205.339 229.477 205.571 229.392C207.351 228.741 206.693 226.72 207.057 225.291C207.791 225.967 207.402 227.199 207.628 228.073C207.894 229.101 208.663 229.976 208.734 231.075C208.896 233.557 206.862 233.007 205.32 233.81C204.002 234.496 203.856 235.36 202.743 233.51C202.442 233.009 201.794 231.705 201.861 231.064C201.926 230.43 202.929 229.903 202.742 229.329ZM204.838 240.071L204.119 239.264C206.262 239.921 204.998 238.933 205.491 237.583C207.136 238.679 208.478 239.807 209.779 237.611L212.028 246.693C210.518 247.049 208.569 244.712 207.533 243.91C206.935 243.446 203.614 241.659 205.608 241.138C205.351 240.782 205.095 240.426 204.838 240.071ZM219.517 211.552C218.269 212.741 217.012 213.406 215.652 214.34C214.46 215.161 214.871 216.102 213.837 217.017C213.151 217.625 211.542 218.244 210.694 218.708C209.184 219.534 207.831 219.692 206.278 218.767C206.7 222.175 204.369 222.442 201.468 223.117C200.084 223.439 199.264 223.931 198.267 222.662C197.584 221.793 197.316 220.221 198.166 219.426C199.516 218.164 203.112 218.599 204.844 217.805C206.158 217.203 207.497 213.81 209.118 215.045C208.281 213.711 209.255 213.351 209.983 212.4C210.779 211.357 211.269 210.138 212.093 209.103C213.659 207.137 216.063 205.159 218.288 203.974C220.245 202.931 221.272 203.669 221.565 205.859C221.713 206.961 221.707 208.601 221.091 209.578C220.895 209.89 220.247 209.893 220.051 210.186C219.709 210.697 220.023 211.07 219.517 211.552ZM242.483 185.118C244.045 186.329 243.893 188.872 244.139 190.604C244.485 193.045 244.234 195.407 244.197 197.894C244.158 200.499 242.881 202.195 242.28 204.637C241.613 207.353 240.751 208.792 239.253 211.071C240.877 211.327 238.46 216.184 238.061 216.813C237.629 217.495 234.14 220.64 235.636 220.64C234.81 221.73 233.912 222.848 233.09 223.908C232.766 224.325 232.198 224.489 231.943 224.783C231.424 225.382 231.392 225.916 231.02 226.614C230.455 227.674 230.27 227.391 229.527 228.16C229.015 228.692 228.678 229.393 228.175 229.902C226.553 231.542 226.346 230.199 225.439 228.935C225.3 229.274 225.053 229.486 224.698 229.572C224.414 228.142 226.369 226.698 227.192 225.83C228.538 224.406 229.769 222.838 230.96 221.282C233.51 217.947 235.801 214.403 237.609 210.607C239.533 206.568 241.069 202.196 241.867 197.79C242.476 194.431 243.054 188.669 238.571 187.814C235.311 187.193 231.717 189.176 229.03 190.782C227.392 191.76 225.745 192.733 224.185 193.833C222.491 195.026 221.028 196.715 219.19 197.672C220.195 197.149 216.878 198.725 217.385 198.282C217.148 198.489 217.353 199.121 217.196 199.407C216.991 199.778 216.279 200.145 215.96 200.386C215.117 201.02 213.769 201.669 213.386 202.716C208.037 198.895 218.674 192.112 221.401 190.385C226.809 186.958 236.22 180.264 242.483 185.118ZM256.911 147.959C256.86 145.208 259.098 141.452 260.609 139.209C261.349 138.11 262.53 138.154 262.963 136.859C263.213 136.113 262.885 135.331 262.959 134.582C263.06 133.569 263.498 132.757 264.004 131.887C268.579 124.017 274.136 117.052 280.056 110.187C282.975 106.802 285.742 103.287 288.89 100.108C290.205 98.7801 293.739 94.0063 295.761 94.4838C296.832 94.7366 297.455 96.3726 297.938 97.2074C298.737 98.5881 299.616 99.8813 300.587 101.151C303.151 104.503 306.108 107.445 309.6 109.821C311.78 111.305 313.983 112.748 316.116 114.304C317.871 115.584 320.525 117.048 321.778 118.845C323.032 120.643 321.191 122.165 320.185 123.658C318.62 125.979 317.182 128.385 315.611 130.704C314.987 130.255 315.148 129.342 314.721 128.766C314.341 128.256 313.805 128.049 313.281 127.734C312.276 127.131 311.29 126.394 310.383 127.404C308.796 129.171 310.979 133.348 313.332 132.89C313.609 134.634 308.91 137.506 307.733 138.466C304.118 141.41 300.39 143.97 295.616 144.237C293.684 144.344 291.674 144.197 289.838 143.55C288.959 143.24 287.987 142.814 287.313 142.138C286.505 141.329 286.3 140.125 285.517 139.324C284.837 138.629 283.905 138.521 283.226 137.824C282.547 137.126 282.211 136.023 281.935 135.119C281.396 133.352 281.294 131.489 280.776 129.718C280.464 128.653 280.208 127.229 279.192 128.253C277.716 129.739 278.457 134.414 278.835 136.195C279.376 138.737 280.643 140.785 281.971 142.972C283.41 145.343 283.942 147.543 284.2 150.287C284.683 155.425 286.155 160.354 288.446 164.976C289.41 166.922 290.565 168.752 291.606 170.653C292.093 171.541 293.182 174.567 294.505 174.551C296.618 174.525 293.608 168.355 293.19 167.319C290.875 161.581 288.664 155.551 288.168 149.339C291.487 150.195 295.104 151.007 298.54 150.465C296.322 155.432 298.639 160.377 298.356 165.489C298.214 168.053 298.112 170.418 298.164 172.974C298.211 175.216 297.2 177.457 296.326 179.484C294.59 183.509 292.405 188.475 289.182 191.558C286.487 194.136 282.882 194.338 279.361 193.744C271.35 192.393 266.088 186.228 262.726 179.225C260.566 174.727 258.915 169.925 257.89 165.04C256.703 159.386 257.017 153.694 256.911 147.959ZM267.314 109.856C259.839 104.441 270.701 98.291 276.23 99.1284C277.527 99.3244 279.913 99.8612 279.792 101.556C279.692 102.941 277.385 104.485 276.499 105.34C273.973 107.78 271.402 112.817 267.314 109.856ZM321.692 230.188C321.436 229.958 319.344 230.523 320.172 229.284C320.861 228.254 322.771 229.545 323.464 229.809C322.893 230.205 322.395 230.818 321.692 230.188ZM290.567 295.687C289.924 295.767 289.253 294.032 291.569 295.328C291.235 295.448 290.901 295.568 290.567 295.687ZM290.501 323.964C290.58 324.742 290.818 325.255 290.266 325.82C289.8 325.244 289.74 324.433 290.501 323.964ZM291.441 335.648C291.372 336.071 291.304 336.494 291.237 336.917C290.702 336.646 290.168 336.375 289.633 336.104C290.235 335.952 290.838 335.8 291.441 335.648ZM292.095 325.796C292.892 326.094 292.521 325.14 293.1 325.006C293.307 325.999 293.052 326.85 292.482 327.67C292.428 327.476 292.136 325.81 292.095 325.796ZM312.466 255.293C311.348 255.15 311.179 256.333 310.345 256.792C309.807 257.089 308.169 256.866 307.863 257.434C308.267 257.55 308.671 257.667 309.074 257.784C308.15 258.283 307.226 258.782 306.302 259.28C308.525 259.28 310.841 258.217 313.048 258.529C313.981 258.661 314.666 258.977 315.251 259.737C315.606 260.198 315.918 260.941 315.976 261.506C316.037 262.117 315.562 262.539 315.646 262.831C316.641 262.858 316.523 264.492 316.3 265.158C315.816 266.602 313.892 268.863 312.167 267.947C312.889 268.972 312.705 269.557 311.638 270.152C311.735 269.813 311.806 269.22 311.261 269.279C311.121 269.847 311.175 270.748 310.712 271.176C310.193 271.655 309.73 271.095 309.234 271.407C308.647 271.776 308.823 272.357 308.361 272.758C307.75 273.288 307.662 272.911 306.931 273.014C305.825 273.171 306.531 272.483 305.644 273.38C305.338 273.69 305.389 274.496 304.892 274.949C303.938 275.819 301.39 276.726 300.476 275.61C298.277 279.099 291.686 279.937 288.618 277.182C283.725 272.789 292.848 263.854 295.86 261.022C298.884 258.18 302.242 255.726 305.639 253.356C307.57 252.011 309.551 250.789 311.574 249.589C312.822 248.849 314.389 247.498 315.922 247.627C317.298 247.744 318.473 248.812 319.921 249.024C320.968 249.177 323.002 249.429 321.681 250.852C321.063 251.516 318.637 252.591 317.811 252.752C317.325 252.847 316.814 252.665 316.333 252.764C315.519 252.931 314.96 253.619 314.074 253.532C314.354 254.848 313.842 255.468 312.466 255.293ZM326.947 206.425C326.948 207.455 325.071 207.198 324.678 206.848C324.033 206.273 324.01 204.552 323.771 203.769C324.862 204.044 326.946 205.05 326.947 206.425ZM311.824 172.45C315.768 169.204 319.914 166.229 324.297 163.608C325.867 162.67 328.083 160.777 330.032 161.014C330.85 161.113 332.541 162.053 331.925 163.09C331.81 163.284 330.9 163.362 330.619 163.503C330.3 163.662 330.05 164.102 329.754 164.319C327.706 165.823 325.246 166.747 323.191 168.288C321.503 169.553 319.928 170.968 318.11 172.054C316.367 173.095 314.545 173.754 312.889 174.907C312.922 174.883 310.736 175.67 311.164 175.814C309.245 175.171 311.272 172.905 311.824 172.45ZM338.116 171.241C340.458 170.306 342.75 169.172 345.203 168.544C346.427 168.23 347.683 167.994 348.95 168.135C349.165 167.758 349.452 167.675 349.81 167.885C350.09 168.315 350.458 168.646 350.916 168.876C351.615 169.414 354.187 170.117 353.673 171.305C353.333 172.09 350.754 172.156 350.046 172.332C347.912 172.864 345.923 174.062 343.725 174.356C343.518 174.383 342.845 174.133 342.837 174.135C341.979 174.322 341.266 175.213 340.529 175.64C338.942 176.56 336.664 176.714 335.525 178.301C339.213 180.804 342.413 178.321 345.656 176.431C347.598 175.299 349.683 174.482 351.806 173.757C352.915 173.378 354.035 172.984 355.159 172.651C355.624 172.481 356.103 172.359 356.594 172.284C357.05 172.193 357.377 172.359 357.574 172.784C358.934 172.738 359.05 171.884 359.868 173.477C361.022 175.723 359.257 175.609 357.599 175.885C355.299 176.267 352.96 177.127 350.693 177.697C350.171 177.829 345.587 178.893 345.582 178.931C345.374 180.379 358.528 179.038 359.658 178.821C361.65 178.437 363.788 177.347 365.851 177.61C367.435 177.811 371.043 180.138 368.517 181.684C368.019 179.3 366.311 181.269 365.42 182.074C364.232 183.145 362.531 183.042 360.902 183.461C358.674 184.034 352.972 186.184 351.389 183.443C351.89 185.846 342.799 184.625 341.55 184.545C340.331 184.468 338.759 184.727 337.581 184.379C336.813 184.152 336.386 183.652 335.663 183.54C335.486 183.731 335.274 183.861 335.027 183.93C334.66 183.744 334.33 183.508 334.034 183.222C331.6 182.102 327.833 181.483 329.186 177.914C330.462 174.548 335.021 172.476 338.116 171.241ZM360.934 173.321C360.995 173.112 361.056 172.902 361.116 172.692C361.123 173.335 362.654 173.609 362.478 174.442C362.086 176.286 360.319 173.515 360.167 173.213C360.423 173.249 360.678 173.285 360.934 173.321ZM370.281 176.385C370.459 177.141 372.495 178.749 371.99 179.12C371.187 178.027 368.969 178.523 370.281 176.385ZM335.939 245.312C336.685 243.832 338.938 246.353 338.7 243.826C339.925 243.937 339.16 244.87 340.629 244.46C341.179 244.306 341.551 243.695 342.221 243.555C342.4 243.517 343.172 243.578 343.439 243.57C344.322 243.543 347.782 243.445 345.401 242.285C346.734 241.403 346.898 241.85 348.101 242.659C347.792 240.987 349.563 241.936 350.387 242.145C349.799 241.191 351.258 240.177 351.731 239.533C351.562 240.525 351.651 241.637 353.086 241.002C353.443 240.844 353.363 240.143 353.646 240.028C354.165 239.818 354.455 240.2 354.642 240.178C354.825 240.158 355.211 240.261 355.596 240.115C356.096 239.927 355.855 239.254 356.489 239.154C356.902 239.09 357.204 239.698 357.709 239.703C357.968 239.705 358.4 239.442 358.596 239.456C358.631 239.458 358.878 238.863 359.18 238.849C359.623 238.827 359.803 240.015 359.965 240.246C360.74 241.346 361.77 242.064 362.959 242.651C360.809 244.625 356.471 244.416 353.767 245.082C352.302 245.442 351.053 245.963 349.712 246.633C349.389 246.844 349.111 247.102 348.878 247.408C348.688 247.282 348.498 247.156 348.308 247.03C347.574 247.075 346.879 246.711 346.052 246.851C343.499 247.282 341.499 249.197 338.904 249.624C337.738 249.816 336.78 250.084 336.021 249.072C335.354 248.184 335.464 246.256 335.939 245.312ZM332.438 233.515C333.017 234.005 332.321 235.6 333.441 235.427C334.236 235.303 334.078 234.069 334.702 233.807C335.522 233.463 336.017 234.278 336.788 234.203C338.225 234.061 338.143 232.804 336.929 232.253C338.191 231.919 338.596 233.414 339.714 233.4C341.182 233.382 340.831 231.648 342.081 231.361C342.622 231.236 342.441 232.031 342.792 232.131C343.495 232.328 343.984 231.989 344.606 231.69C345.162 231.423 345.558 230.908 346.166 230.733C346.442 230.653 347.145 230.799 347.348 230.651C347.757 230.352 348.123 229.189 348.526 229.035C348.443 229.067 349.764 229.729 349.953 229.791C349.837 230.282 349.568 230.341 349.147 229.967C349.147 231.075 352.223 231.42 351.592 230.051C353.255 230.74 352.016 231.095 351.85 232.058C351.784 232.445 351.559 232.434 351.626 232.843C351.656 233.032 352.528 232.869 352.517 233.126C352.444 234.78 347.179 235.289 346.182 235.435C344.117 235.737 342.163 236.245 340.172 236.871C338.69 237.336 336.135 238.671 334.557 238.588C332.289 238.469 331.993 235.505 332.438 233.515ZM327.37 216.636C326.817 214.796 328.591 210.995 330.902 211.47C331.47 211.587 331.61 212.059 332.051 212.268C332.667 212.56 333.667 212.406 334.201 212.708C335.397 213.386 334.794 215.114 335.993 215.738C334.101 216.197 328.249 219.561 327.37 216.636ZM329.56 223.785C330.375 223.346 331.697 223.29 332.252 222.446C332.53 222.638 333.053 223.804 333.549 223.625C333.781 223.543 334.021 222.911 334.004 222.911C334.447 222.899 334.534 222.299 335.21 222.366C335.831 222.429 336.526 223.176 337.078 223.454C336.983 221.602 337.457 221.426 338.957 220.434C339.285 220.217 339.56 219.402 339.863 219.072C339.573 221.015 340.304 221.026 341.854 221.318C343.796 221.684 345.007 222.728 345.785 224.608C344.13 224.284 341.994 224.673 341.342 226.455C340.021 224.038 335.219 227.373 333.665 228.056C332.512 228.564 331.171 229.245 330.204 228.063C329.524 227.231 329.914 226.23 329.928 225.491C329.932 225.258 330.172 225.245 330.15 224.899C330.122 224.458 329.548 224.281 329.56 223.785ZM347.234 261.793C346.797 261.959 344.546 262.052 344.532 261.305C344.52 260.646 348.503 261.31 347.234 261.793ZM343.579 259.378C341.876 260.429 339.971 256.726 339.345 255.659C341.131 255.888 342.003 254.392 343.055 253.255C344.056 255.451 345.576 254.291 347.174 253.558C349.06 252.693 351.126 252.686 353.057 251.992C353.66 251.775 354.216 251.453 354.804 251.205C355.278 251.028 355.75 250.846 356.221 250.66C356.555 250.358 356.673 249.987 356.576 249.546C356.418 249.176 356.526 248.943 356.9 248.846C357.345 248.979 357.798 249.056 358.262 249.077C359.007 248.929 360.076 248.226 359.178 247.468C360.14 246.592 361.105 247.463 362.032 247.846C361.811 247.218 361.592 246.589 361.372 245.96C361.832 246.156 363.197 248.066 363.336 248.055C364.218 247.989 364.126 246.803 364.633 246.325C364.926 246.686 365.01 249.38 366.16 248.473C366.652 248.085 365.593 246.763 365.332 246.462C366.648 246.759 367.797 248.332 368.153 249.554C367.528 249.644 366.95 249.519 366.42 249.176C366.081 250.877 369.225 250.188 369.734 251.076C370.731 252.816 364.246 254.024 363.402 254.185C361.711 254.508 359.716 254.628 358.166 255.378C356.682 256.097 356.33 256.302 354.595 256.437C352.615 256.591 350.683 257.244 348.768 257.753C347.105 258.194 345.053 258.468 343.579 259.378ZM379.769 197.11C381.333 196.547 386.599 193.623 387.94 194.923C387.799 194.786 388.907 197.078 388.895 196.934C388.991 198.127 388.962 198.607 387.495 199.178C386.445 199.587 385.531 198.718 384.586 199.063C383.549 199.443 384.274 200.114 383.74 200.583C383.155 201.097 382.027 201.319 381.298 201.545C379.515 202.096 377.718 202.557 375.944 203.151C372.333 204.36 368.51 205.484 364.8 206.339C362.027 206.978 357.321 208.566 354.766 206.691C354.516 207.757 353.907 207.611 353.06 207.766C352.396 207.888 351.196 208.217 350.605 208.234C349.623 208.263 346.892 208.005 347.268 206.625C347.164 207.005 349.392 205.705 349.007 205.624C349.953 205.823 349.646 205.346 350.421 205.081C351.434 204.735 352.492 204.753 353.525 204.386C356.131 203.461 358.316 202.261 361.067 201.682C367.349 200.358 373.709 199.294 379.769 197.11ZM127.941 339.645C127.432 339.658 127.036 338.21 128.584 339.244C128.37 339.378 128.156 339.511 127.941 339.645ZM115.708 337.771C115.016 337.948 114.74 337.561 114.881 336.611C115.846 336.229 116.122 336.615 115.708 337.771ZM106.265 335.831C106.087 334.984 106.715 334.793 107.284 334.412C107.226 335.535 107.226 335.535 106.265 335.831ZM82.5032 328.858C81.5459 328.648 80.2705 327.71 80.0511 329.284C79.891 328.92 79.0738 327.206 79.4247 326.809C79.6079 326.602 80.3016 327.561 80.2278 327.466C81.0656 325.77 82.5097 327.817 83.3168 328.423C83.0458 328.568 82.7742 328.713 82.5032 328.858ZM331.38 141.339C331.71 140.639 332.1 140.417 332.548 140.673C331.844 142.309 329.461 143.196 331.38 141.339ZM347.939 125.977C348.529 127.085 347.641 127.554 347.007 128.475C347.378 127.481 347.635 126.793 347.939 125.977ZM419.909 234.16C422.038 234.159 426.573 233.034 427.857 235.471C428.707 233.815 429.673 236.92 430.41 237.418C430.493 237.475 431.024 237.068 431.271 237.218C431.644 237.444 431.965 238.058 432.178 238.424C432.821 239.525 433.098 240.835 433.454 242.047C429.735 242.047 425.922 241.18 422.206 240.865C419.767 240.658 417.376 240.652 414.933 240.784C414.448 240.81 413.484 240.65 413.069 240.741C412.647 240.834 411.883 241.694 411.418 241.556C412.14 242.913 421.391 246.2 422.097 244.697C421.26 244.19 419.403 243.801 419.405 242.577C419.406 241.205 421.147 241.208 422.069 241.248C424.087 241.336 427.466 242.009 428.294 244.11C428.648 245.01 428.757 247.278 428.367 248.147C428.116 248.709 427.69 249.384 427.016 249.498C426.739 249.545 426.341 249.176 426.298 249.185C424.914 249.479 422.352 250.593 420.842 249.023C419.753 250.434 414.509 248.893 412.903 248.361C410.095 247.43 406.228 246.152 404.523 243.528C402.444 240.33 406.671 237.628 409.097 236.328C412.415 234.552 416.205 234.161 419.909 234.16ZM434.079 241.553C434.732 241.737 435.385 241.922 436.037 242.107C435.863 243.253 433.288 242.346 434.079 241.553ZM453.81 283.207C454.011 278.616 452.686 274.572 451.92 270.132C451.73 269.031 451.924 267.107 451.089 266.202C450.291 265.336 448.511 266.04 448.44 264.51C447.655 265.431 447.734 265.624 446.766 264.564C446.942 265.018 446.968 265.48 446.842 265.951C446.241 265.606 444.064 264.461 444.247 266.027C442.457 265.63 442.975 264.509 441.954 263.653C441.809 263.531 441.226 263.963 440.999 263.779C440.588 263.446 440.385 263.143 440.038 262.714C439.598 263.247 438.999 263.632 438.461 264.053C438.148 263.371 437.539 262.87 436.807 262.704C437.491 264.138 439.183 265.994 436.863 266.81C435.478 267.297 433.21 266.7 431.743 266.814C426.307 267.236 420.353 266.049 415.097 264.753C409.697 263.421 404.237 261.54 399.381 258.792C398.346 258.206 397.694 257.513 396.803 256.786C395.936 256.079 395.306 255.967 394.265 255.516C392.39 254.702 390.675 253.398 389.249 251.945C386.183 248.819 383.334 244.731 384.188 240.155C385.039 235.594 388.17 232.029 391.521 229.026C395.477 225.479 399.945 222.517 404.687 220.129C406.807 219.062 412.23 215.052 414.325 217.398C415.664 218.897 414.911 220.809 413.081 221.143C412.63 221.225 412.159 220.922 411.703 221.13C411.045 221.429 411.276 221.783 411.005 222.033C410.534 222.466 410.033 223.143 409.328 223.519C406.87 224.831 404.494 225.871 402.144 227.469C401.061 228.206 400.019 228.522 399.064 229.165C398.114 229.804 397.898 230.861 396.621 230.209C397.076 232.069 394.346 234.06 393.275 235.199C391.617 236.964 389.63 239.215 390.403 241.825C391.918 246.935 398.76 250.815 403.138 253.061C408.603 255.864 414.628 258.095 420.713 259.018C423.737 259.477 426.864 259.761 429.911 260.052C432.284 260.278 435.925 259.449 437.632 261.588C437.685 259.093 445.467 259.313 447.123 258.994C443.802 247.628 437.282 237.522 430.31 228.08C426.889 223.445 423.529 218.678 419.629 214.429C415.36 209.778 410.482 205.621 405.847 201.34C396.757 192.945 386.476 185.453 376.014 178.853C365.577 172.268 354.767 165.788 343.332 161.093C330.272 155.731 316.522 152.204 302.757 149.201C304.624 146.818 307.661 145.656 310.052 143.913C310.889 143.303 312.021 141.839 313.108 141.639C314.286 141.422 315.213 142.69 316.051 143.327C318.457 145.154 320.121 144.378 322.876 144.268C324.525 144.202 328.43 145.122 329.125 142.889C330.05 144.121 328.709 145.109 328.023 146.013C328.522 146.71 328.925 145.987 329.418 145.878C329.571 145.751 329.722 145.625 329.874 145.499C330.119 145.144 330.34 145.142 330.536 145.492C330.83 145.935 331.127 145.837 331.425 145.197C331.507 145.146 331.588 145.094 331.67 145.043C332.026 144.853 332.37 144.552 332.701 144.316C335.205 142.524 337.437 140.997 340.201 139.677C342.523 138.57 341.275 136.45 342.805 134.953C343.151 134.615 343.734 134.785 344.105 134.498C344.467 134.216 344.522 133.896 344.786 133.594C345.422 132.868 344.665 132.025 346.288 132.914L345.702 129.616C348.883 132.706 348.871 123.814 349.305 122.498C349.248 122.672 349.591 121.326 349.59 121.337C349.684 118.669 350.048 116.735 346.927 116.58C348.108 115.836 348.47 117.289 349.015 115.785C349.288 115.031 348.435 113.735 349.795 114.221C350.081 112.619 349.798 111.322 349.442 109.765C349.076 108.171 349.291 107.108 349.308 105.514C349.326 103.706 348.481 101.889 348.211 100.109C347.999 98.7147 348.217 96.5158 346.417 97.028C346.164 96.6314 347.053 95.4116 347.017 94.8085C346.961 93.8716 345.945 92.9197 345.658 92.02C345.234 92.4573 344.638 92.6031 344.062 92.4055C344.603 91.1832 344.096 90.7726 343.578 89.7186C343.281 89.115 343.461 88.4485 342.826 88.0158C342.462 87.7675 341.841 88.1857 341.556 87.8947C340.945 87.2714 341.171 86.4447 340.75 85.6234C340.222 84.5936 339.017 83.807 338.187 83.034C333.518 78.689 328.448 75.3683 322.237 73.6705C315.973 71.9576 308.669 71.3439 302.425 73.3196C299.929 74.1092 297.714 74.0283 295.467 75.503C294.739 75.9814 294.661 75.8533 294.291 76.6509C294.205 76.8369 294.981 77.3319 294.506 77.636C293.99 77.9662 293.42 77.2947 293.157 76.7374C289.908 79.0926 286.863 82.2323 285.012 85.8325C283.173 89.41 283.004 93.6128 282.302 97.5004C279.063 93.7952 274.682 92.019 269.919 93.8003C265.767 95.3523 262.55 98.764 261.738 103.184C261.243 105.878 261.784 108.607 263.006 111.038C263.535 112.089 264.175 113.252 265.146 113.959C265.915 114.518 267.231 114.439 267.593 115.447C268.148 116.992 264.944 120.328 264.112 121.68C262.608 124.126 261.21 126.653 260.146 129.325C256.331 123.929 252.678 118.035 248.34 113.059C244.246 108.363 239.365 104.151 234.577 100.181C224.642 91.9426 214.311 84.2025 203.196 77.639C192.848 71.5274 180.347 68.1343 168.286 69.334C156.502 70.5066 147.479 77.9692 139.887 86.5763C125.29 103.126 116.349 126.713 115.475 148.743C115.213 155.361 115.716 161.892 117.349 168.311C118.126 171.367 118.013 174.373 118.465 177.469C118.975 180.961 119.857 184.44 120.71 187.861C123.958 200.892 128.098 213.913 132.742 226.512C135.157 233.064 138.079 239.47 142.032 245.247C143.857 247.916 146.223 250.004 148.187 252.538C150.093 254.995 150.597 258.012 151.016 261.028C152.021 268.259 152.687 275.52 153.292 282.794C153.548 285.876 153.848 288.931 154.255 291.992C154.611 294.661 153.717 294.53 151.475 295.436C151.929 293.038 141.217 294.67 140.205 294.833C139.104 295.011 137.939 295.014 137.072 295.156C136.103 295.313 135.154 295.542 134.038 295.51C132.397 295.463 129.324 295.043 128.698 297.14C128.267 294.709 125.419 297.368 127.526 296.916C125.363 297.158 123.156 296.755 120.967 296.959C118.458 297.193 115.928 297.415 113.437 297.793C111.702 298.056 110.047 298.725 108.31 298.919C106.087 299.167 103.767 299.144 101.522 299.342C93.2425 300.074 84.6606 301.882 76.6123 303.953C74.7892 304.422 72.6945 304.755 70.9527 305.508C70.4864 305.709 70.0668 306.159 69.62 306.332C68.8711 306.621 68.9735 306.421 68.3084 306.554C64.3234 307.352 60.2124 308.655 56.2279 309.677C54.0178 310.244 50.4228 310.756 48.6198 312.3C47.8117 312.992 47.1054 314.219 48.4005 315.005C49.435 315.633 50.9117 314.63 51.749 314.089C51.0031 316.035 49.5961 317.005 50.3561 319.22C50.9559 320.97 52.3102 323.126 54.3938 321.998C54.6729 322.648 54.7858 323.94 55.6075 324.179C56.3459 324.394 56.8805 323.457 57.6038 323.677C57.8628 323.756 57.7644 324.246 57.9963 324.374C58.3959 324.595 58.8009 324.688 59.2587 324.843C59.6523 324.977 60.2857 325.251 60.6963 325.281C60.9568 325.299 61.5707 324.853 61.5687 324.853C62.167 324.944 62.4888 326.09 62.9195 326.422C63.4786 326.852 63.9404 326.95 64.6407 327.106C66.0963 327.429 67.9726 327.984 68.9334 326.492C68.7135 327.557 70.1606 327.453 70.7991 327.588C70.7284 327.027 70.4187 326.513 69.9408 326.204C71.3683 326.299 70.7896 327.72 71.8447 328.095C72.5966 328.362 72.5113 327.684 73.0865 327.608C73.8445 327.509 74.4197 328.06 75.6033 327.552C75.8598 328.693 75.9537 329.844 77.3536 330.015C78.1753 330.115 80.0913 328.629 79.9829 329.865C81.8185 329.327 82.5152 329.691 83.4745 331.311C83.6366 330.316 84.4211 330.605 85.1409 330.543C86.2819 330.446 86.311 330.538 87.1954 329.891C87.2762 329.832 87.972 328.236 88.2812 329.228C88.4202 329.672 87.5011 330.718 87.1608 330.984C87.5834 331.198 88.9683 331.947 89.5009 331.809C89.9617 331.69 89.9632 330.902 90.5169 330.861C90.3813 331.314 90.2463 331.768 90.1103 332.222C91.1875 332.378 92.0875 331.657 92.9383 331.128C93.7494 333.182 96.068 332.025 97.3289 333.57C97.996 334.388 98.0271 335.009 99.298 335.223C100.599 335.441 101.735 334.87 102.84 335.944C102.489 335.277 101.617 334.725 102.484 334.008C103.074 334.847 103.379 335.857 104.06 336.637C104.153 336.241 104.247 335.844 104.341 335.447C106.116 337.348 108.349 337.364 110.622 338.418V337.027C112.249 339.514 112.336 337.94 114.28 336.924C114.148 337.656 114.016 338.387 113.884 339.118C115.283 339.012 116.59 340.672 117.738 339.262C118.432 340.427 119.273 339.854 120.41 340.224C121.056 340.434 121.538 341.071 122.167 341.302C123.11 341.648 123.391 341.632 124.279 341.933C125.069 342.2 125.518 342.721 126.506 342.888C127.148 342.996 127.73 342.988 128.345 342.959C128.582 342.947 128.504 342.412 129.031 342.537C129.847 342.731 130.454 343.755 131.042 344.28C131.925 342.057 134.399 345.035 135.594 345.432C135.709 344.862 135.688 344.175 136.1 343.706C136.584 344.768 136.769 345.66 137.773 346.343C138.353 346.738 139.204 347.02 139.874 347.165C140.297 347.256 141.066 347.146 141.332 347.277C141.786 347.5 141.953 348.094 142.411 348.15C142.681 348.183 143.08 347.473 143.282 347.528C144.206 347.78 144.719 348.904 145.651 349.511C148.427 351.319 151.919 351.494 155.011 351.891C155.787 351.99 155.9 351.778 156.53 352.234C156.867 352.478 156.714 353.218 157.128 353.426C158.686 354.208 158.687 352.539 159.014 351.503C159.529 352.184 159.618 353.083 160.323 353.625C160.708 353.613 161.094 353.622 161.478 353.651C161.695 353.898 161.838 354.184 161.904 354.509C162.838 355.14 163.895 354.92 164.86 355.394C165.176 355.549 165.736 356.489 166.126 356.759C166.823 357.242 167.901 357.501 168.698 357.711C170.368 358.151 172.763 357.566 173.757 359.312C175.077 357.896 174.566 359.587 175.462 359.943C175.991 360.152 176.787 359.319 177.374 359.401C178.43 359.55 178.811 360.696 179.149 361.528C179.793 361.385 179.351 359.562 179.333 359.162C180.133 359.068 180.31 361.176 180.448 361.64C181.711 361.031 179.639 359.137 180.996 358.529C180.871 360.143 182.156 361.472 179.862 361.703C180.179 362.675 187.578 363.754 188.092 362.897C188.205 364.483 189.27 363.001 189.662 362.458C189.706 363.384 189.392 364.697 190.429 365.127C191.133 365.419 192.723 364.664 192.999 363.972C193.315 365.029 193.844 364.994 194.501 365.665C194.953 366.126 195.251 366.925 195.725 367.311C196.597 368.022 198.218 367.913 199.234 367.754C201.222 367.444 200.987 367.062 201.695 369.131C201.856 368.346 202.358 366.704 203.233 367.925C203.79 368.7 202.604 370.409 202.261 371.091C203.027 370.669 203.788 370.17 204.659 369.988C204.708 370.257 204.752 370.828 204.624 371.076C204.65 371.026 205.58 371.65 205.924 371.823C205.842 371.782 206.197 370.228 206.187 370.278C207.413 371.036 206.562 372.485 207.649 373.233C207.929 373.426 208.588 373.2 208.927 373.318C209.518 373.523 210.029 374.077 210.554 374.402C210.135 373.839 210.195 372.894 210.224 372.244C210.491 372.392 210.681 372.945 210.951 372.988C211.053 373.005 212.109 373.145 212.102 373.14C213.202 373.911 212.976 374.008 212.032 374.935C212.369 375.466 213.779 374.544 214.16 374.391C214.24 374.598 214.261 375.352 214.411 375.487C214.502 375.71 214.593 375.933 214.684 376.156C214.966 375.946 215.268 375.876 215.591 375.946C215.794 376.017 217.385 376.664 217.493 376.443C217.145 376.33 216.829 376.157 216.547 375.925C217.465 375.098 218.069 374.659 218.915 375.852C219.021 376.002 218.655 376.542 218.764 376.738C219.168 377.468 219.998 378.049 220.562 378.643C220.795 377.822 220.252 375.767 221.548 375.842C222.584 375.901 223.371 378.413 223.013 379.194C223.425 378.744 225.882 378.296 226.346 378.437C227.657 378.835 227.29 380.049 228.903 378.27C230.004 379.03 229.034 379.318 229.232 380.245C229.523 380.306 229.798 380.234 230.058 380.029C229.864 383.968 232.766 380.959 234.651 381.56C235.391 381.796 235.58 382.637 236.374 382.883C236.795 383.013 237.262 382.706 237.67 382.781C237.998 382.734 238.323 382.676 238.646 382.607C239.056 382.402 239.248 382.631 239.223 383.297C239.882 383.639 239.633 383.772 240.403 383.839C240.898 383.882 241.355 383.365 241.918 383.453C242.891 383.606 242.762 384.353 243.384 384.744C243.943 385.096 244.573 385.084 245.262 385.016C245.613 384.981 246.598 384.529 246.717 384.527C247.452 384.517 247.053 384.36 247.937 384.993C248.625 385.487 248.913 385.806 249.757 386.033C250.726 386.293 252.443 386.862 253.095 386.161C253.975 387.482 254.664 386.512 255.826 386.6C256.42 386.645 256.514 386.877 257.043 386.969C257.901 387.119 258.97 386.989 259.882 387.282C261.319 387.745 261.482 387.977 262.95 388.039C263.215 387.936 263.48 387.832 263.745 387.728C263.824 388.171 264.033 388.532 264.37 388.812C265.192 388.985 265.732 388.57 266.409 388.115C266.914 389.689 268.553 389.827 269.954 390.034C272.215 390.368 274.378 390.551 276.558 391.295C278.4 391.923 280.245 392.629 282.016 393.434C283.576 394.142 285.047 395.201 286.811 394.704C290.807 393.577 294.68 389.469 298.024 387.111C301.984 384.317 306.255 382.015 310.393 379.504C326.867 369.505 344.272 361.046 360.515 350.676C369.383 345.014 377.611 338.287 387.135 333.706C385.779 339.315 383.471 345.01 383.888 350.883C384.056 353.25 384.752 356.046 386.585 357.698C388.852 359.741 391.376 358.44 393.543 356.98C398.188 353.854 401.285 349.291 404.761 345.007C408.873 339.939 412.061 334.493 415.081 328.717C415.804 329.734 415.254 331.437 415.264 332.564C415.279 334.003 415.666 335.389 416.332 336.673C418.052 339.987 421.325 340.791 424.282 338.52C429.973 334.15 433.276 326.367 436.325 320.1C438.064 323.34 440.533 327.418 444.71 325.104C448.156 323.194 450.181 318.928 451.235 315.314C454.313 304.765 453.338 294.02 453.81 283.207Z" fill="#2E2E2E"/>
<path fill-rule="evenodd" clip-rule="evenodd" d="M448.584 219.845C448.191 218.889 448.018 219.045 448.741 218.119C449.304 218.674 448.853 219.133 448.584 219.845ZM466.001 277.701C464.896 274.555 465.579 271.138 464.908 267.911C464.6 266.43 464.113 264.994 463.938 263.487C463.86 262.818 463.265 259.807 463.67 259.333C462.424 258.577 462.42 258.017 462.131 256.535C462.576 256.063 462.52 255.661 461.964 255.326C461.6 254.886 461.236 254.445 460.873 254.005C462.463 254.784 461.522 252.791 461.36 251.642C461.231 250.735 461.145 249.788 460.843 248.918C460.471 247.848 459.644 247.307 461.364 247.307C460.798 246.662 459.951 245.997 459.669 245.207C459.264 244.071 459.933 242.569 459.106 241.566C458.644 241.006 456.267 240.787 456.684 239.577C456.896 238.961 457.86 239.421 458.158 238.989C459.33 237.292 455.87 236.589 455.7 235.868C455.48 234.932 456.73 234.723 456.807 233.848C456.882 232.991 455.552 231.584 455.2 230.818C454.722 230.934 454.197 231.693 453.648 231.331C453.545 231.262 453.701 228.297 453.576 227.904C453.454 227.517 453.203 226.49 453.114 226.3C452.759 225.546 451.743 225.179 451.582 224.288C451.486 223.756 453.567 222.951 451.18 222.925C452.038 221.413 450.467 220.493 449.895 219.201C449.16 217.539 448.727 215.743 447.972 214.073C447.238 212.449 446.418 210.908 445.36 209.472C444.402 208.172 443.988 206.921 443.222 205.548C443.069 205.427 442.916 205.307 442.763 205.186C442.125 205.279 441.92 204.988 442.149 204.313C441.66 203.588 441.297 202.815 440.867 202.059C440.366 201.18 439.691 200.463 439.174 199.608C438.488 198.475 438.285 197.197 437.51 196.06C436.556 194.661 435.484 193.428 434.6 191.977C433.493 190.159 432.267 189.029 430.873 187.621C430.21 186.951 430.13 185.276 429.318 184.324C428.433 183.287 427.559 183.006 426.946 181.645C426.147 179.874 424.976 179.029 423.836 177.499C422.896 176.236 422.436 174.785 421.4 173.564C420.509 172.515 419.498 171.556 418.547 170.562C417.346 169.306 416.46 167.779 415.21 166.585C415.39 166.757 414.122 165.751 414.186 165.783C413.905 165.64 413 165.525 413.132 165.603C411.245 164.493 408.882 160.429 406.043 162.582C404.55 163.715 405.266 165.791 406.309 166.919C406.756 167.404 409.083 169.792 409.585 168.785C410.128 169.555 411.799 173.277 413.189 172.211C413.047 173.483 413.783 173.061 414.269 173.921C414.589 174.488 414.433 174.766 414.666 175.652C415.307 178.087 417.753 180.464 419.055 182.587C422.297 187.871 425.874 192.883 429.119 198.173C432.212 203.214 435.675 207.998 438.642 213.108C442.017 218.918 446.221 224.402 448.763 230.666C448.849 230.876 449.556 231.209 449.731 231.526C450.036 232.075 449.971 233.025 450.167 233.647C450.85 235.804 451.955 237.928 453.215 239.714C454.321 241.282 454.401 243.413 455.161 245.252C456.234 247.844 457.367 250.408 458.409 253.013C460.031 257.068 461.13 260.954 462.25 265.187C462.977 267.93 463.554 270.672 463.786 273.505C463.999 276.11 464.051 278.823 465.014 281.289C465.67 280.274 466.444 278.959 466.001 277.701Z" fill="#2E2E2E"/>
<path fill-rule="evenodd" clip-rule="evenodd" d="M94.9892 333.521C93.8236 333.286 92.7269 332.971 92.4799 331.631C92.3107 332.263 92.1421 332.895 91.9729 333.526C93.392 333.848 94.8115 334.17 96.2305 334.492C95.8992 333.907 95.6573 333.656 94.9892 333.521Z" fill="#2E2E2E"/>
<path fill-rule="evenodd" clip-rule="evenodd" d="M98.1165 113.611C98.2049 113.233 98.3193 112.863 98.4604 112.501C98.5562 112.854 99.0261 113.616 98.7525 113.948C98.4041 114.37 98.0518 114.131 98.1165 113.611ZM103.83 102.726C104.213 102.895 105.04 102.927 105.515 103.07C104.284 104.131 104.067 103.819 102.474 103.696C102.403 102.622 102.839 102.289 103.83 102.726ZM93.1532 129.303C93.3183 129.307 93.484 129.311 93.6501 129.315C93.6602 128.848 93.6481 128.381 93.613 127.914C95.2925 128.282 94.3418 125.343 93.8143 124.734C95.4526 124.789 96.2508 119.595 96.7698 118.594C97.2306 117.705 97.7526 117.362 98.0894 116.278C98.3841 115.33 98.7028 114.476 99.1279 113.579C100.105 111.516 101.386 109.643 101.15 107.239C101.978 109.043 102.705 107.242 103.23 106.38C104.076 104.99 106.14 103.217 106.359 101.566C106.553 100.113 105.475 100.036 106.111 98.6889C106.755 97.3248 107.284 97.4616 108.411 97.0253C109.161 96.7348 109.31 97.0876 109.839 96.1397C110.182 95.526 110.061 95.0687 110.5 94.5655C110.681 94.7234 110.888 94.7887 111.119 94.7616C111.475 94.2906 111.709 93.7659 111.82 93.1874C112.11 92.4064 112.251 91.6891 112.689 90.9453C113.104 90.2406 113.841 88.3554 114.231 88.0156C114.646 87.6547 116.997 87.8382 116.987 87.8513C117.959 86.6279 116.176 85.4091 118.644 85.6669C118.157 84.7582 119.869 83.6304 120.366 83.1248C121.607 81.8627 121.706 81.2787 121.968 79.6915C122.101 78.8823 121.233 78.9758 122.397 78.7913C122.878 78.7154 123.34 79.3316 123.688 79.2412C125.221 78.8431 123.617 78.919 124.04 78.2932C124.173 78.0947 124.856 77.2936 124.849 77.3021C124.816 77.3423 125.003 76.605 125.157 76.4155C125.45 76.3904 125.739 76.3391 126.023 76.2617C126.167 75.9702 126.294 75.6717 126.405 75.3661C127.514 74.4393 129.175 74.0246 129.942 73.0063C130.439 72.3479 130.29 71.7031 130.932 71.0467C131.543 70.4215 132.351 70.8743 132.472 69.462C132.626 67.6652 130.698 66.8655 129.91 68.6789C127.771 66.0418 118.834 75.7174 117.801 76.9814C113.316 82.4689 108.908 88.092 105.229 94.1599C101.645 100.073 98.7028 106.294 96.4033 112.815C95.2945 115.959 94.6194 119.09 93.9423 122.342C93.7149 123.431 92.0158 128.285 92.723 129.371C92.8661 129.348 93.0096 129.325 93.1532 129.303Z" fill="#2E2E2E"/>
<path fill-rule="evenodd" clip-rule="evenodd" d="M446.179 263.87C446.935 263.365 446.935 263.365 447.067 262.412C446.054 262.597 446.054 262.597 446.179 263.87Z" fill="#2E2E2E"/>
<path fill-rule="evenodd" clip-rule="evenodd" d="M73.8115 328.014C73.8207 328.013 73.8276 328.015 73.833 328.021C73.8173 328 73.7606 327.941 73.8115 328.014Z" fill="#2E2E2E"/>
<path fill-rule="evenodd" clip-rule="evenodd" d="M73.3051 328.526C73.5385 329.031 73.9135 329.157 74.4305 328.902C74.6343 329.193 72.6626 327.083 73.3051 328.526Z" fill="#2E2E2E"/>
<path fill-rule="evenodd" clip-rule="evenodd" d="M107.401 97.984C106.218 100.307 107.699 98.6173 107.624 99.3717C107.673 98.8761 107.879 98.17 107.401 97.984Z" fill="#2E2E2E"/>
<path fill-rule="evenodd" clip-rule="evenodd" d="M299.745 133.931C300.257 138.095 305.947 136.126 307.227 133.607C308.16 131.773 310.513 124.526 307.981 122.995C306.104 121.86 305.702 126.751 305.24 127.844C304.464 129.674 303.858 128.377 302.134 128.847C300.231 129.365 299.533 132.204 299.745 133.931Z" fill="#2E2E2E"/>
<path fill-rule="evenodd" clip-rule="evenodd" d="M293.528 126.308C295.562 126.761 297.555 126.527 299 124.919C299.8 124.028 300.865 122.262 299.424 121.4C298.119 120.619 296.638 122.447 295.264 122.069C293.394 121.555 294.356 119.548 293.715 118.222C291.358 119.581 290.043 125.533 293.528 126.308Z" fill="#2E2E2E"/>
<path fill-rule="evenodd" clip-rule="evenodd" d="M295.637 136.824C293.676 136.82 293.66 139.234 294.683 140.269C295.663 141.259 298.139 142.262 299.467 141.492C302.086 139.972 297.223 136.981 295.637 136.824Z" fill="#2E2E2E"/>
<path fill-rule="evenodd" clip-rule="evenodd" d="M181.558 232.84C181.977 233.044 183.211 234.091 183.731 233.618C182.997 232.878 182.263 232.137 181.529 231.397C181.123 231.842 180.845 232.493 181.558 232.84Z" fill="#2E2E2E"/>
<path fill-rule="evenodd" clip-rule="evenodd" d="M172.293 126.911C172.085 127.066 171.876 127.222 171.667 127.377C172.371 127.964 172.353 128.138 173.062 127.583C172.851 127.305 172.596 127.082 172.293 126.911Z" fill="#2E2E2E"/>
<path fill-rule="evenodd" clip-rule="evenodd" d="M305.175 265.084C304.781 264.375 304.036 265.682 303.533 265.895C302.714 266.24 302.041 264.411 302.276 266.603C300.425 265.754 299.301 267.702 298.107 268.716C296.42 270.15 294.356 270.927 293.231 272.963C298.528 274.204 304.348 269.631 308.298 266.627C308.942 266.137 312.164 263.663 309.98 263.423C309.087 263.326 305.837 266.275 305.175 265.084Z" fill="#2E2E2E"/>
<path fill-rule="evenodd" clip-rule="evenodd" d="M303.604 260.791C304.642 259.972 302.403 259.898 302.05 259.812C302.08 260.463 302.11 261.113 302.14 261.764C302.641 261.46 303.129 261.135 303.604 260.791Z" fill="#2E2E2E"/>
<path fill-rule="evenodd" clip-rule="evenodd" d="M299.706 263.52C300.016 263.326 300.881 262.72 300.292 262.269C299.761 262.608 299.381 263.161 299.298 263.791C299.434 263.701 299.57 263.611 299.706 263.52Z" fill="#2E2E2E"/>
<path fill-rule="evenodd" clip-rule="evenodd" d="M213.916 210.742C213.253 211.003 212.956 211.414 213.025 211.978C214.044 211.77 213.85 210.806 213.916 210.742Z" fill="#2E2E2E"/>
</svg>
