<svg width="51" height="42" viewBox="0 0 51 42" fill="none" xmlns="http://www.w3.org/2000/svg">
<path d="M49.5833 1.02221C47.4686 2.51389 45.1272 3.65478 42.6492 4.40096C41.3192 2.87171 39.5516 1.78782 37.5855 1.29588C35.6195 0.803935 33.5497 0.92768 31.6563 1.65037C29.7628 2.37307 28.137 3.65984 26.9987 5.33666C25.8604 7.01349 25.2645 8.99945 25.2917 11.026V13.2343C21.4108 13.3349 17.5653 12.4742 14.0976 10.7288C10.63 8.98342 7.64778 6.40753 5.41667 3.23054C5.41667 3.23054 -3.41667 23.1055 16.4583 31.9389C11.9103 35.026 6.49247 36.574 1 36.3555C20.875 47.3972 45.1667 36.3555 45.1667 10.9597C45.1646 10.3446 45.1055 9.73098 44.99 9.12679C47.2438 6.90409 48.8343 4.09778 49.5833 1.02221V1.02221Z" stroke="#0E811C" stroke-width="2" stroke-linecap="round" stroke-linejoin="round"/>
</svg>
